<svg width="1376" height="468" viewBox="0 0 1376 468" fill="none" xmlns="http://www.w3.org/2000/svg">
<g clip-path="url(#clip0_53_4325)">
<path d="M1234 74C1222.95 74 1214 65.0457 1214 54V20C1214 8.95431 1205.05 0 1194 0H20C8.95435 0 0 8.95431 0 20V415C0 426.046 8.95435 435 20 435H57.5H156.5C165.613 435 173 442.387 173 451.5C173 460.613 180.387 468 189.5 468H1270.5C1281.55 468 1290.5 459.046 1290.5 448V429C1290.5 417.954 1299.45 409 1310.5 409H1356C1367.05 409 1376 400.046 1376 389V94C1376 82.9543 1367.05 74 1356 74H1234Z" fill="#00FF7F"/>
<path fill-rule="evenodd" clip-rule="evenodd" d="M710.5 -5.72956C458.531 -5.72956 254.27 198.532 254.27 450.5C254.27 702.469 458.531 906.73 710.5 906.73C962.469 906.73 1166.73 702.469 1166.73 450.5C1166.73 198.532 962.469 -5.72956 710.5 -5.72956ZM183.537 450.5C183.537 159.467 419.466 -76.4629 710.5 -76.4629C1001.53 -76.4629 1237.46 159.467 1237.46 450.5C1237.46 741.534 1001.53 977.464 710.5 977.464C419.466 977.464 183.537 741.534 183.537 450.5Z" fill="url(#paint0_linear_53_4325)" fill-opacity="0.04"/>
<path fill-rule="evenodd" clip-rule="evenodd" d="M710.5 110.98C522.988 110.98 370.98 262.988 370.98 450.5C370.98 638.012 522.988 790.02 710.5 790.02C898.012 790.02 1050.02 638.012 1050.02 450.5C1050.02 262.988 898.012 110.98 710.5 110.98ZM300.247 450.5C300.247 223.923 483.923 40.2466 710.5 40.2466C937.077 40.2466 1120.75 223.923 1120.75 450.5C1120.75 677.077 937.077 860.753 710.5 860.753C483.923 860.753 300.247 677.077 300.247 450.5Z" fill="url(#paint1_linear_53_4325)" fill-opacity="0.04"/>
<path fill-rule="evenodd" clip-rule="evenodd" d="M710.5 241.838C595.258 241.838 501.837 335.26 501.837 450.501C501.837 565.743 595.258 659.165 710.5 659.165C825.742 659.165 919.163 565.743 919.163 450.501C919.163 335.26 825.742 241.838 710.5 241.838ZM431.103 450.501C431.103 296.195 556.193 171.105 710.5 171.105C864.807 171.105 989.897 296.195 989.897 450.501C989.897 604.808 864.807 729.898 710.5 729.898C556.193 729.898 431.103 604.808 431.103 450.501Z" fill="url(#paint2_linear_53_4325)" fill-opacity="0.04"/>
<path fill-rule="evenodd" clip-rule="evenodd" d="M710.5 372.694C667.529 372.694 632.693 407.529 632.693 450.5C632.693 493.472 667.529 528.307 710.5 528.307C753.471 528.307 788.307 493.472 788.307 450.5C788.307 407.529 753.471 372.694 710.5 372.694ZM561.96 450.5C561.96 368.464 628.464 301.96 710.5 301.96C792.536 301.96 859.04 368.464 859.04 450.5C859.04 532.537 792.536 599.04 710.5 599.04C628.464 599.04 561.96 532.537 561.96 450.5Z" fill="url(#paint3_linear_53_4325)" fill-opacity="0.04"/>
</g>
<defs>
<linearGradient id="paint0_linear_53_4325" x1="710.5" y1="-76.4629" x2="710.5" y2="977.464" gradientUnits="userSpaceOnUse">
<stop stop-opacity="0.71"/>
<stop offset="0.675" stop-opacity="0"/>
</linearGradient>
<linearGradient id="paint1_linear_53_4325" x1="710.5" y1="40.2466" x2="710.5" y2="860.753" gradientUnits="userSpaceOnUse">
<stop stop-opacity="0.71"/>
<stop offset="0.675" stop-opacity="0"/>
</linearGradient>
<linearGradient id="paint2_linear_53_4325" x1="710.5" y1="171.105" x2="710.5" y2="729.898" gradientUnits="userSpaceOnUse">
<stop stop-opacity="0.71"/>
<stop offset="0.675" stop-opacity="0"/>
</linearGradient>
<linearGradient id="paint3_linear_53_4325" x1="710.5" y1="301.96" x2="710.5" y2="599.04" gradientUnits="userSpaceOnUse">
<stop stop-opacity="0.71"/>
<stop offset="0.675" stop-opacity="0"/>
</linearGradient>
<clipPath id="clip0_53_4325">
<rect width="1376" height="468" fill="white"/>
</clipPath>
</defs>
</svg>
