<svg width="781" height="781" viewBox="0 0 781 781" fill="none" xmlns="http://www.w3.org/2000/svg">
<circle cx="508.472" cy="392.175" r="89.8982" transform="rotate(65.529 508.472 392.175)" fill="url(#paint0_linear_53_3992)" fill-opacity="0.3"/>
<circle cx="465.009" cy="376.575" r="89.8982" transform="rotate(65.529 465.009 376.575)" fill="url(#paint1_linear_53_3992)" fill-opacity="0.3"/>
<circle cx="423.659" cy="368.858" r="89.8982" transform="rotate(65.529 423.659 368.858)" fill="url(#paint2_linear_53_3992)" fill-opacity="0.3"/>
<circle cx="377.947" cy="370.99" r="89.8982" transform="rotate(65.529 377.947 370.99)" fill="url(#paint3_linear_53_3992)" fill-opacity="0.3"/>
<circle cx="327.942" cy="375.566" r="89.8982" transform="rotate(65.529 327.942 375.566)" fill="url(#paint4_linear_53_3992)" fill-opacity="0.3"/>
<circle cx="273.202" cy="389.176" r="89.8982" transform="rotate(65.529 273.202 389.176)" fill="url(#paint5_linear_53_3992)" fill-opacity="0.3"/>
<path d="M251.231 314.289L255.556 325.978L267.245 330.303L255.556 334.629L251.231 346.318L246.905 334.629L235.216 330.303L246.905 325.978L251.231 314.289Z" fill="white"/>
<path d="M291.268 314.289L295.593 325.978L307.282 330.303L295.593 334.629L291.268 346.318L286.942 334.629L275.253 330.303L286.942 325.978L291.268 314.289Z" fill="white"/>
<path d="M331.304 314.289L335.63 325.978L347.319 330.303L335.63 334.629L331.304 346.318L326.979 334.629L315.29 330.303L326.979 325.978L331.304 314.289Z" fill="white"/>
<defs>
<linearGradient id="paint0_linear_53_3992" x1="508.857" y1="302.555" x2="508.857" y2="482.351" gradientUnits="userSpaceOnUse">
<stop stop-color="white" stop-opacity="0.12"/>
<stop offset="0.39375" stop-color="white" stop-opacity="0"/>
<stop offset="1" stop-color="white" stop-opacity="0.38"/>
</linearGradient>
<linearGradient id="paint1_linear_53_3992" x1="465.354" y1="286.94" x2="465.354" y2="466.737" gradientUnits="userSpaceOnUse">
<stop stop-color="white" stop-opacity="0.12"/>
<stop offset="0.39375" stop-color="white" stop-opacity="0"/>
<stop offset="1" stop-color="white" stop-opacity="0.38"/>
</linearGradient>
<linearGradient id="paint2_linear_53_3992" x1="423.966" y1="279.216" x2="423.966" y2="459.012" gradientUnits="userSpaceOnUse">
<stop stop-color="white" stop-opacity="0.12"/>
<stop offset="0.39375" stop-color="white" stop-opacity="0"/>
<stop offset="1" stop-color="white" stop-opacity="0.38"/>
</linearGradient>
<linearGradient id="paint3_linear_53_3992" x1="378.212" y1="281.35" x2="378.212" y2="461.147" gradientUnits="userSpaceOnUse">
<stop stop-color="white" stop-opacity="0.12"/>
<stop offset="0.39375" stop-color="white" stop-opacity="0"/>
<stop offset="1" stop-color="white" stop-opacity="0.38"/>
</linearGradient>
<linearGradient id="paint4_linear_53_3992" x1="328.161" y1="285.931" x2="328.161" y2="465.727" gradientUnits="userSpaceOnUse">
<stop stop-color="white" stop-opacity="0.12"/>
<stop offset="0.39375" stop-color="white" stop-opacity="0"/>
<stop offset="1" stop-color="white" stop-opacity="0.38"/>
</linearGradient>
<linearGradient id="paint5_linear_53_3992" x1="273.37" y1="299.553" x2="273.37" y2="479.35" gradientUnits="userSpaceOnUse">
<stop stop-color="white" stop-opacity="0.12"/>
<stop offset="0.39375" stop-color="white" stop-opacity="0"/>
<stop offset="1" stop-color="white" stop-opacity="0.38"/>
</linearGradient>
</defs>
</svg>
