<svg width="422" height="422" viewBox="0 0 422 422" fill="none" xmlns="http://www.w3.org/2000/svg">
<rect x="12.0171" y="409.983" width="397.966" height="397.966" transform="rotate(-90 12.0171 409.983)" stroke="#FF450F" stroke-width="2.66667"/>
<path d="M211 391.285H30.7154C30.7154 291.716 111.432 211 211 211V391.285Z" fill="url(#paint0_linear_10_305)"/>
<path d="M211 391.285H30.7154C30.7154 291.716 111.432 211 211 211V391.285Z" fill="url(#paint1_linear_10_305)"/>
<path d="M211 391.285H30.7154C30.7154 291.716 111.432 211 211 211V391.285Z" fill="#FFBF34"/>
<path d="M391.286 211L391.286 391.285C291.717 391.285 211.001 310.569 211.001 211L391.286 211Z" fill="#FF450F"/>
<path d="M211 30.7153L211 211C310.569 211 391.285 130.284 391.285 30.7153L211 30.7153Z" fill="url(#paint2_linear_10_305)"/>
<path d="M211 30.7153L211 211C310.569 211 391.285 130.284 391.285 30.7153L211 30.7153Z" fill="url(#paint3_linear_10_305)"/>
<path d="M211 30.7153L211 211C310.569 211 391.285 130.284 391.285 30.7153L211 30.7153Z" fill="#FFBF34"/>
<path d="M30.7146 211L30.7146 30.7153C130.283 30.7153 210.999 111.432 210.999 211L30.7146 211Z" fill="#FF450F"/>
<rect x="1.33333" y="420.667" width="18.7004" height="18.7004" transform="rotate(-90 1.33333 420.667)" fill="white" stroke="#FF450F" stroke-width="2.66667"/>
<rect x="1.33333" y="20.0339" width="18.7004" height="18.7004" transform="rotate(-90 1.33333 20.0339)" fill="white" stroke="#FF450F" stroke-width="2.66667"/>
<rect x="401.966" y="20.0338" width="18.7004" height="18.7004" transform="rotate(-90 401.966 20.0338)" fill="white" stroke="#FF450F" stroke-width="2.66667"/>
<rect x="401.966" y="420.667" width="18.7004" height="18.7004" transform="rotate(-90 401.966 420.667)" fill="white" stroke="#FF450F" stroke-width="2.66667"/>
<defs>
<linearGradient id="paint0_linear_10_305" x1="142.879" y1="358.89" x2="126.598" y2="235.35" gradientUnits="userSpaceOnUse">
<stop stop-color="white"/>
<stop offset="1" stop-color="#ACADB0"/>
</linearGradient>
<linearGradient id="paint1_linear_10_305" x1="142.96" y1="301.142" x2="130.427" y2="212.778" gradientUnits="userSpaceOnUse">
<stop stop-color="white"/>
<stop offset="1" stop-color="#ACADB0"/>
</linearGradient>
<linearGradient id="paint2_linear_10_305" x1="243.395" y1="98.8367" x2="366.935" y2="115.117" gradientUnits="userSpaceOnUse">
<stop stop-color="white"/>
<stop offset="1" stop-color="#ACADB0"/>
</linearGradient>
<linearGradient id="paint3_linear_10_305" x1="301.143" y1="98.7554" x2="389.507" y2="111.288" gradientUnits="userSpaceOnUse">
<stop stop-color="white"/>
<stop offset="1" stop-color="#ACADB0"/>
</linearGradient>
</defs>
</svg>
