<svg width="16" height="16" viewBox="0 0 16 16" fill="none" xmlns="http://www.w3.org/2000/svg">
<path d="M7.71206 2.98458C7.81501 2.63257 7.86648 2.45656 7.9576 2.43259C7.98539 2.42528 8.01461 2.42528 8.0424 2.43259C8.13352 2.45656 8.18499 2.63257 8.28794 2.98459L9.31155 6.48472C9.33154 6.55309 9.34153 6.58727 9.36295 6.61347C9.37 6.6221 9.3779 6.63 9.38653 6.63705C9.41273 6.65847 9.44691 6.66846 9.51528 6.68845L13.0154 7.71206C13.3674 7.81501 13.5434 7.86648 13.5674 7.9576C13.5747 7.98539 13.5747 8.01461 13.5674 8.0424C13.5434 8.13352 13.3674 8.18499 13.0154 8.28794L9.51528 9.31155C9.44691 9.33154 9.41273 9.34153 9.38653 9.36295C9.3779 9.37 9.37 9.3779 9.36295 9.38653C9.34153 9.41273 9.33154 9.44691 9.31155 9.51528L8.28794 13.0154C8.18499 13.3674 8.13352 13.5434 8.0424 13.5674C8.01461 13.5747 7.98539 13.5747 7.9576 13.5674C7.86648 13.5434 7.81501 13.3674 7.71206 13.0154L6.68845 9.51528C6.66846 9.44691 6.65847 9.41273 6.63705 9.38653C6.63 9.3779 6.6221 9.37 6.61347 9.36295C6.58727 9.34153 6.55309 9.33154 6.48472 9.31155L2.98458 8.28794C2.63257 8.18499 2.45656 8.13352 2.43259 8.0424C2.42528 8.01461 2.42528 7.98539 2.43259 7.9576C2.45656 7.86648 2.63257 7.81501 2.98459 7.71206L6.48472 6.68845C6.55309 6.66846 6.58727 6.65847 6.61347 6.63705C6.6221 6.63 6.63 6.6221 6.63705 6.61347C6.65847 6.58727 6.66846 6.55309 6.68845 6.48472L7.71206 2.98458Z" stroke="white" stroke-opacity="0.64" stroke-linejoin="round"/>
</svg>
