<svg xmlns="http://www.w3.org/2000/svg" xmlns:xlink="http://www.w3.org/1999/xlink"><symbol fill="none" id="sprite-advantage-arrow-right" viewBox="0 0 36 30"><path d="M21.4437 29.1126L18.7815 26.4505L28.844 16.4369H0V12.6757H28.844L18.7815 2.66214L21.4437 0L36 14.5563L21.4437 29.1126Z" fill="currentColor"/></symbol><use xlink:href="#sprite-advantage-arrow-right" width="36" height="30" y="0"/><view id="sprite-advantage-arrow-right-view" viewBox="0 0 36 30"/><symbol fill="none" id="sprite-advantage-attach" viewBox="0 0 24 24"><path d="M6.336 12.7308L12.7008 6.36603C13.0073 6.0596 13.3712 5.81655 13.7716 5.65074C14.172 5.48493 14.6012 5.39962 15.0346 5.39968C15.468 5.39973 15.8972 5.48516 16.2976 5.65107C16.698 5.81697 17.0618 6.06012 17.3682 6.36663C17.6746 6.67313 17.9177 7.03699 18.0835 7.43743C18.2493 7.83787 18.3346 8.26705 18.3345 8.70045C18.3345 9.13386 18.2491 9.56301 18.0832 9.96341C17.9173 10.3638 17.6741 10.7276 17.3676 11.034L9.7308 18.6708C9.4493 18.9523 9.0675 19.1105 8.6694 19.1105C8.2713 19.1105 7.8895 18.9523 7.608 18.6708C7.3265 18.3893 7.16835 18.0075 7.16835 17.6094C7.16835 17.2113 7.3265 16.8295 7.608 16.548L14.3964 9.75963C14.5554 9.58902 14.6419 9.36336 14.6378 9.1302C14.6337 8.89704 14.5392 8.67458 14.3743 8.50968C14.2094 8.34479 13.987 8.25033 13.7538 8.24622C13.5207 8.24211 13.295 8.32865 13.1244 8.48763L6.336 15.276C5.71698 15.895 5.36922 16.7346 5.36922 17.61C5.36922 18.4854 5.71698 19.325 6.336 19.944C6.95501 20.563 7.79458 20.9108 8.67 20.9108C9.54542 20.9108 10.385 20.563 11.004 19.944L18.6396 12.306C19.5776 11.3459 20.0993 10.0546 20.0915 8.71233C20.0837 7.37004 19.547 6.08494 18.5978 5.13578C17.6487 4.18662 16.3636 3.64993 15.0213 3.64212C13.679 3.6343 12.3877 4.15599 11.4276 5.09403L5.064 11.4576C4.90502 11.6282 4.81848 11.8539 4.82259 12.0871C4.8267 12.3202 4.92116 12.5427 5.08605 12.7076C5.25095 12.8725 5.47341 12.9669 5.70657 12.971C5.93973 12.9752 6.16539 12.8886 6.336 12.7296V12.7308Z" fill="currentColor"/></symbol><use xlink:href="#sprite-advantage-attach" width="24" height="24" y="30"/><view id="sprite-advantage-attach-view" viewBox="0 30 24 24"/><symbol fill="none" id="sprite-advantage-dots-vertical" viewBox="0 0 22 21"><path d="M11 4.36317L11 4.3719M11 10.4716L11 10.4803M11 16.58L11 16.5887M11 5.2358C10.4938 5.2358 10.0833 4.84511 10.0833 4.36317C10.0833 3.88123 10.4938 3.49054 11 3.49054C11.5063 3.49054 11.9167 3.88123 11.9167 4.36317C11.9167 4.84511 11.5063 5.2358 11 5.2358ZM11 11.3442C10.4938 11.3442 10.0833 10.9535 10.0833 10.4716C10.0833 9.98965 10.4938 9.59896 11 9.59896C11.5063 9.59896 11.9167 9.98965 11.9167 10.4716C11.9167 10.9535 11.5063 11.3442 11 11.3442ZM11 17.4527C10.4938 17.4527 10.0833 17.062 10.0833 16.58C10.0833 16.0981 10.4938 15.7074 11 15.7074C11.5063 15.7074 11.9167 16.0981 11.9167 16.58C11.9167 17.062 11.5063 17.4527 11 17.4527Z" stroke="currentColor" stroke-width="2.01515" stroke-linecap="round" stroke-linejoin="round"/></symbol><use xlink:href="#sprite-advantage-dots-vertical" width="22" height="21" y="54"/><view id="sprite-advantage-dots-vertical-view" viewBox="0 54 22 21"/><symbol fill="none" id="sprite-advantage-emoji-smile" viewBox="0 0 20 20"><path d="M10 18.75C7.67936 18.75 5.45376 17.8281 3.81282 16.1872C2.17187 14.5462 1.25 12.3206 1.25 10C1.25 7.67936 2.17187 5.45376 3.81282 3.81282C5.45376 2.17187 7.67936 1.25 10 1.25C12.3206 1.25 14.5462 2.17187 16.1872 3.81282C17.8281 5.45376 18.75 7.67936 18.75 10C18.75 12.3206 17.8281 14.5462 16.1872 16.1872C14.5462 17.8281 12.3206 18.75 10 18.75ZM10 20C12.6522 20 15.1957 18.9464 17.0711 17.0711C18.9464 15.1957 20 12.6522 20 10C20 7.34784 18.9464 4.8043 17.0711 2.92893C15.1957 1.05357 12.6522 0 10 0C7.34784 0 4.8043 1.05357 2.92893 2.92893C1.05357 4.8043 0 7.34784 0 10C0 12.6522 1.05357 15.1957 2.92893 17.0711C4.8043 18.9464 7.34784 20 10 20Z" fill="currentColor"/><path d="M5.35625 11.9588C5.4998 11.8759 5.67039 11.8534 5.8305 11.8963C5.99061 11.9392 6.12712 12.044 6.21 12.1875C6.59389 12.8529 7.14632 13.4055 7.81166 13.7895C8.47701 14.1735 9.23178 14.3755 10 14.375C10.7682 14.3755 11.523 14.1735 12.1883 13.7895C12.8537 13.4055 13.4061 12.8529 13.79 12.1875C13.8307 12.1158 13.8852 12.053 13.9504 12.0025C14.0155 11.952 14.09 11.9148 14.1696 11.8932C14.2491 11.8716 14.3321 11.866 14.4139 11.8766C14.4956 11.8872 14.5744 11.9139 14.6458 11.9551C14.7172 11.9964 14.7797 12.0513 14.8298 12.1168C14.8799 12.1822 14.9165 12.257 14.9376 12.3367C14.9586 12.4163 14.9637 12.4994 14.9526 12.5811C14.9414 12.6627 14.9142 12.7414 14.8725 12.8125C14.3789 13.6679 13.6687 14.3783 12.8133 14.872C11.958 15.3657 10.9876 15.6254 10 15.625C9.01237 15.6254 8.04204 15.3657 7.18668 14.872C6.33132 14.3783 5.6211 13.6679 5.1275 12.8125C5.04462 12.669 5.02216 12.4984 5.06506 12.3383C5.10796 12.1781 5.2127 12.0416 5.35625 11.9588ZM8.75 8.125C8.75 9.16 8.19 10 7.5 10C6.81 10 6.25 9.16 6.25 8.125C6.25 7.09 6.81 6.25 7.5 6.25C8.19 6.25 8.75 7.09 8.75 8.125ZM13.75 8.125C13.75 9.16 13.19 10 12.5 10C11.81 10 11.25 9.16 11.25 8.125C11.25 7.09 11.81 6.25 12.5 6.25C13.19 6.25 13.75 7.09 13.75 8.125Z" fill="currentColor"/></symbol><use xlink:href="#sprite-advantage-emoji-smile" width="20" height="20" y="75"/><view id="sprite-advantage-emoji-smile-view" viewBox="0 75 20 20"/><symbol fill="none" id="sprite-advantage-eye" viewBox="0 0 56 56"><path d="M35 28C35 31.866 31.866 35 28 35C24.134 35 21 31.866 21 28C21 24.134 24.134 21 28 21C31.866 21 35 24.134 35 28Z" stroke="currentColor" stroke-width="4" stroke-linecap="round" stroke-linejoin="round"/><path d="M5.73592 27.9999C8.70922 18.5334 17.5532 11.6667 28.001 11.6667C38.4489 11.6667 47.2929 18.5335 50.2662 28.0001C47.2929 37.4666 38.4489 44.3333 28.0011 44.3333C17.5532 44.3333 8.70917 37.4665 5.73592 27.9999Z" stroke="currentColor" stroke-width="4" stroke-linecap="round" stroke-linejoin="round"/></symbol><use xlink:href="#sprite-advantage-eye" width="56" height="56" y="95"/><view id="sprite-advantage-eye-view" viewBox="0 95 56 56"/><symbol fill="none" id="sprite-arrow-top-right" viewBox="0 0 24 24"><path d="M6 19L19 6M6.52 6H19V18.48" stroke="currentColor" stroke-width="1.5" stroke-linecap="round" stroke-linejoin="round"/></symbol><use xlink:href="#sprite-arrow-top-right" width="24" height="24" y="151"/><view id="sprite-arrow-top-right-view" viewBox="0 151 24 24"/><symbol fill="none" id="sprite-cta-phone" viewBox="0 0 24 24"><path d="M3 5C3 3.89543 3.89543 3 5 3H8.27924C8.70967 3 9.09181 3.27543 9.22792 3.68377L10.7257 8.17721C10.8831 8.64932 10.6694 9.16531 10.2243 9.38787L7.96701 10.5165C9.06925 12.9612 11.0388 14.9308 13.4835 16.033L14.6121 13.7757C14.8347 13.3306 15.3507 13.1169 15.8228 13.2743L20.3162 14.7721C20.7246 14.9082 21 15.2903 21 15.7208V19C21 20.1046 20.1046 21 19 21H18C9.71573 21 3 14.2843 3 6V5Z" stroke="currentColor" stroke-width="2" stroke-linecap="round" stroke-linejoin="round"/></symbol><use xlink:href="#sprite-cta-phone" width="24" height="24" y="175"/><view id="sprite-cta-phone-view" viewBox="0 175 24 24"/><symbol fill="none" id="sprite-footer-badge" viewBox="0 0 24 24"><path d="M12 0C5.39271 0 0 5.39272 0 12C0 18.6073 5.39271 24 12 24C18.6073 24 24 18.6073 24 12C24 5.39272 18.6073 0 12 0ZM3.35223 12C3.35223 9.52227 4.42105 7.23887 6.12146 5.68422C6.80162 5.05264 7.96761 5.24696 8.45344 6.07288L11.4656 11.2713C11.7571 11.7571 11.7571 12.3401 11.4656 12.8259L8.45344 18.0243C7.96761 18.8988 6.80162 19.0445 6.07288 18.3644C4.42105 16.7125 3.35223 14.4777 3.35223 12ZM15.5466 17.9271L12.5344 12.7288C12.2429 12.2429 12.2429 11.6599 12.5344 11.1741L15.5466 5.9757C16.0324 5.14979 17.1498 4.95547 17.8785 5.58705C19.5789 7.1417 20.6478 9.4251 20.6478 11.9028C20.6478 14.3806 19.5789 16.664 17.8785 18.2186C17.1498 18.996 16.0324 18.8016 15.5466 17.9271Z" fill="currentColor"/></symbol><use xlink:href="#sprite-footer-badge" width="24" height="24" y="199"/><view id="sprite-footer-badge-view" viewBox="0 199 24 24"/><symbol fill="none" id="sprite-hero-arrow-narrow-right" viewBox="0 0 24 24"><path d="M17 16L21 12L17 8M21 12L3 12" stroke="currentColor" stroke-width="2" stroke-linecap="round" stroke-linejoin="round"/></symbol><use xlink:href="#sprite-hero-arrow-narrow-right" width="24" height="24" y="223"/><view id="sprite-hero-arrow-narrow-right-view" viewBox="0 223 24 24"/><symbol fill="none" id="sprite-hero-chatbot" viewBox="0 0 18 20"><path d="M9 19L1 15V5L9 1L17 5V15L9 19ZM17 5L9 9M9 9L1 5M9 9V19" stroke="currentColor" stroke-width="2" stroke-linejoin="round"/></symbol><use xlink:href="#sprite-hero-chatbot" width="18" height="20" y="247"/><view id="sprite-hero-chatbot-view" viewBox="0 247 18 20"/><symbol fill="none" id="sprite-hero-cube" viewBox="0 0 24 24"><path d="M14 10L12 11M12 11L10 10M12 11V13.5M20 7L18 8M20 9.5V7L18 6M14 4L12 3L10 4M4 9.5V7L6 6M4 7L6 8M14 20L12 21L10 20M12 21V18.5M6 18L4 17V14.5M18 18L20 17V14.5" stroke="currentColor" stroke-width="2" stroke-linecap="round" stroke-linejoin="round"/></symbol><use xlink:href="#sprite-hero-cube" width="24" height="24" y="267"/><view id="sprite-hero-cube-view" viewBox="0 267 24 24"/><symbol fill="none" id="sprite-hero-play" viewBox="0 0 24 24"><path d="M22.5 12C22.5006 12.2546 22.4353 12.5051 22.3105 12.727C22.1856 12.949 22.0055 13.1348 21.7875 13.2665L8.28 21.5297C8.05227 21.6691 7.79144 21.7452 7.52445 21.7502C7.25746 21.7551 6.99399 21.6887 6.76125 21.5578C6.53073 21.4289 6.3387 21.2409 6.2049 21.0132C6.07111 20.7855 6.00039 20.5263 6 20.2622V3.73779C6.00039 3.47368 6.07111 3.21445 6.2049 2.98673C6.3387 2.75902 6.53073 2.57106 6.76125 2.44217C6.99399 2.31124 7.25746 2.24482 7.52445 2.24977C7.79144 2.25471 8.05227 2.33084 8.28 2.47029L21.7875 10.7334C22.0055 10.8651 22.1856 11.051 22.3105 11.2729C22.4353 11.4949 22.5006 11.7453 22.5 12Z" fill="currentColor"/></symbol><use xlink:href="#sprite-hero-play" width="24" height="24" y="291"/><view id="sprite-hero-play-view" viewBox="0 291 24 24"/></svg>