<svg width="24" height="24" viewBox="0 0 24 24" fill="none" xmlns="http://www.w3.org/2000/svg">
<path d="M3 10.2C3 7.20021 3 5.70032 3.76393 4.64886C4.01065 4.30928 4.30928 4.01065 4.64886 3.76393C5.70032 3 7.20021 3 10.2 3H13.8C16.7998 3 18.2997 3 19.3511 3.76393C19.6907 4.01065 19.9893 4.30928 20.2361 4.64886C21 5.70032 21 7.20021 21 10.2V13.8C21 16.7998 21 18.2997 20.2361 19.3511C19.9893 19.6907 19.6907 19.9893 19.3511 20.2361C18.2997 21 16.7998 21 13.8 21H12H10.2C7.20021 21 5.70032 21 4.64886 20.2361C4.30928 19.9893 4.01065 19.6907 3.76393 19.3511C3 18.2997 3 16.7998 3 13.8V10.2Z" stroke="white" stroke-width="1.5" stroke-linejoin="round"/>
<path d="M8.06818 16.2259V9.6804H9.88352V16.2259H8.06818ZM8.98011 8.83665C8.71023 8.83665 8.47869 8.74716 8.28551 8.56818C8.09517 8.38636 8 8.16903 8 7.91619C8 7.66619 8.09517 7.4517 8.28551 7.27273C8.47869 7.09091 8.71023 7 8.98011 7C9.25 7 9.48011 7.09091 9.67045 7.27273C9.86364 7.4517 9.96023 7.66619 9.96023 7.91619C9.96023 8.16903 9.86364 8.38636 9.67045 8.56818C9.48011 8.74716 9.25 8.83665 8.98011 8.83665Z" fill="white"/>
<path d="M13.1531 12.4418V16.2259H11.3377V9.6804H13.0678V10.8352H13.1445C13.2894 10.4545 13.5323 10.1534 13.8732 9.93182C14.2141 9.70739 14.6275 9.59517 15.1133 9.59517C15.5678 9.59517 15.9641 9.6946 16.3022 9.89347C16.6403 10.0923 16.9031 10.3764 17.0906 10.7457C17.2781 11.1122 17.3718 11.5497 17.3718 12.0582V16.2259H15.5565V12.3821C15.5593 11.9815 15.457 11.669 15.2496 11.4446C15.0423 11.2173 14.7567 11.1037 14.3931 11.1037C14.1488 11.1037 13.9329 11.1563 13.7454 11.2614C13.5607 11.3665 13.4158 11.5199 13.3107 11.7216C13.2085 11.9205 13.1559 12.1605 13.1531 12.4418Z" fill="white"/>
</svg>
