<svg width="103" height="20" viewBox="0 0 103 20" fill="none" xmlns="http://www.w3.org/2000/svg">
<g clip-path="url(#clip0_0_8)">
<path d="M18.9068 18.6206V18.6175C19.0165 18.7537 19.1196 18.8825 19.2155 19.0022C19.3557 19.1774 19.4806 19.3333 19.5887 19.466C19.7421 19.6601 19.8928 19.8364 20.0368 19.9933H17.3303C17.0145 19.9933 16.7357 19.9669 16.4855 19.9091L16.4839 19.9089L16.4823 19.9085C16.2392 19.8587 16.0185 19.7584 15.8068 19.6236C15.6023 19.4936 15.3911 19.2845 15.1593 19C15.1592 18.9997 15.1589 18.9995 15.1587 18.9992L9.61236 11.9669L3.73953 19.1265L3.73832 19.1279L3.73716 19.1295C3.52089 19.4094 3.26072 19.6188 2.955 19.7717C2.65744 19.9205 2.24302 20 1.70215 20H0.0714111C0.283999 19.7976 0.498484 19.58 0.709648 19.3443C0.886143 19.1513 1.05827 18.9602 1.22495 18.7751C1.33117 18.6572 1.43519 18.5417 1.53672 18.4298L1.53861 18.4277L1.54042 18.4255L8.29881 10.295L0.356223 0.127747H4.387L10.2306 7.95544L16.6925 0.127747H19.4984L11.5523 9.63259L18.9068 18.6206Z" fill="white"/>
<path d="M22.0046 20L27.7556 3.01295C27.7557 3.01267 27.7559 3.01238 27.756 3.0121C28.1005 2.03865 28.5673 1.29359 29.1578 0.774417C29.7329 0.268911 30.741 0 32.2186 0C33.4741 0 34.3921 0.213454 34.9999 0.631176L35.1039 0.71212C35.7165 1.18932 36.2159 1.95119 36.5873 3.01224L36.5874 3.01254L42.465 20H39.1178L37.2416 14.4522H26.1385L24.3497 20H22.0046ZM33.8258 13.1871L36.7299 13.1804L33.7888 4.23375V4.23348C33.644 3.78526 33.4501 3.39012 33.2067 3.04234C32.9338 2.65247 32.4134 2.48222 31.7008 2.48222C30.9054 2.48222 30.3288 2.65707 30.041 3.06169C29.7841 3.42271 29.596 3.81224 29.4774 4.23654L28.8125 6.32565C26.1385 13.1871 30.2607 13.1871 33.8258 13.1871Z" fill="white"/>
<path d="M60.0554 11.2776L60.0706 11.27C62.549 15.4902 64.721 17.8431 64.6481 9.60771L64.721 0.168091H66.915L66.9017 17.0251C66.9017 17.0251 67.0588 18.7581 65.098 19.6078C64.2984 19.9544 62.9 19.9933 62.9 19.9933L49.5183 2.8038V20H47.2916V1.83286C47.2916 1.44248 47.3084 1.12765 47.3401 0.887524C47.3725 0.642373 47.4187 0.491958 47.4664 0.416649C47.5038 0.357598 47.5938 0.293656 47.7757 0.246236C47.9537 0.199776 48.1986 0.174816 48.5125 0.174816H51.3741L60.0554 11.2776Z" fill="white"/>
<path d="M74.5976 0.703657C74.6311 0.547432 74.7133 0.42105 74.848 0.325659C74.9755 0.235352 75.2104 0.174866 75.5795 0.174866H77.6342V20H74.5333V1.44289C74.5333 1.12674 74.5597 0.880748 74.5976 0.703657Z" fill="white"/>
<path d="M102.125 19.9933H99.4184C99.1026 19.9933 98.8237 19.9669 98.5735 19.9091L98.572 19.9089L98.5704 19.9085C98.3271 19.8587 98.1066 19.7584 97.8947 19.6236C97.6904 19.4936 97.4792 19.2845 97.2474 19C97.2473 18.9997 97.247 18.9995 97.2467 18.9992L91.7005 11.9669L85.8275 19.1265L85.8264 19.1279L85.8252 19.1295C85.609 19.4094 85.3487 19.6188 85.0431 19.7717C84.7454 19.9205 84.3311 20 83.7901 20H82.1594C82.3721 19.7976 82.5865 19.58 82.7977 19.3443C82.9742 19.1513 83.1463 18.9602 83.313 18.7751C83.4193 18.6572 83.5232 18.5417 83.6248 18.4298L83.6266 18.4277L83.6284 18.4255L90.3869 10.295L82.4443 0.127747H86.4751L92.3186 7.95544L98.7806 0.127747H101.586L93.6403 9.62583L100.763 18.3302C100.961 18.5749 101.142 18.8012 101.304 19.0022C101.444 19.1774 101.569 19.3333 101.677 19.466C101.83 19.6601 101.981 19.8364 102.125 19.9933Z" fill="white"/>
</g>
<defs>
<clipPath id="clip0_0_8">
<rect width="102.222" height="20" fill="white"/>
</clipPath>
</defs>
</svg>
