<svg viewBox="0 0 24 24" fill="none" xmlns="http://www.w3.org/2000/svg">
<path d="M12 0C5.39271 0 0 5.39272 0 12C0 18.6073 5.39271 24 12 24C18.6073 24 24 18.6073 24 12C24 5.39272 18.6073 0 12 0ZM3.35223 12C3.35223 9.52227 4.42105 7.23887 6.12146 5.68422C6.80162 5.05264 7.96761 5.24696 8.45344 6.07288L11.4656 11.2713C11.7571 11.7571 11.7571 12.3401 11.4656 12.8259L8.45344 18.0243C7.96761 18.8988 6.80162 19.0445 6.07288 18.3644C4.42105 16.7125 3.35223 14.4777 3.35223 12ZM15.5466 17.9271L12.5344 12.7288C12.2429 12.2429 12.2429 11.6599 12.5344 11.1741L15.5466 5.9757C16.0324 5.14979 17.1498 4.95547 17.8785 5.58705C19.5789 7.1417 20.6478 9.4251 20.6478 11.9028C20.6478 14.3806 19.5789 16.664 17.8785 18.2186C17.1498 18.996 16.0324 18.8016 15.5466 17.9271Z" fill="#00DF6F"/>
</svg>
