<svg xmlns="http://www.w3.org/2000/svg" fill="none" viewBox="0 0 74 24"><mask id="a" width="74" height="24" x="0" y="0" maskUnits="userSpaceOnUse" style="mask-type:luminance"><path fill="#fff" d="M73.02 0H0v23.8h73.02z"/></mask><g fill="#fff" fill-opacity=".64" mask="url(#a)"><path d="M11.3.02q.9-.04 1.8.05.83.07 1.64.27a12 12 0 0 1 8.9 9.71l.08.48H15.8q-.09-.19-.16-.39l-.18-.34a4.5 4.5 0 0 0-2.74-1.92 3.7 3.7 0 0 0-2.57.3c.14.18.33.34.48.51l.81.94 1.23 1.3 3.06 3.29 1.33 1.4.1.2c-.02.22-.2.37-.35.51l-.55.54a6.7 6.7 0 0 1-3.7 1.67c-.46.05-1 .03-1.47 0a6.7 6.7 0 0 1-3.65-1.66q-.51-.48-.96-1.01H4.43c-.16 0-.85-.04-.94.02q.02.27.17.5.21.4.47.78a9.4 9.4 0 0 0 4.04 3.34q1.06.42 2.16.6a8 8 0 0 0 3.39-.06q.99-.2 1.9-.6a9 9 0 0 0 5.36-7.12h2.22c.1 0 .33-.04.42 0q.03 0 .04.03v.04c.02.3-.09.64-.14.93a12 12 0 0 1-2.6 5.3c-1.67 2-4.09 3.38-6.64 3.91-.69.14-1.39.2-2.09.27l-1.38-.07q-.3 0-.61-.04a12 12 0 0 1-3.91-1.27q-1.2-.65-2.22-1.53a11.5 11.5 0 0 1-3.6-5.46 10 10 0 0 1-.43-2.12c.66-.05 1.35-.01 2.01-.01h5.2c.16 0 .39-.03.54.02.26.08.37.5.5.72a4.16 4.16 0 0 0 5.29 1.6l-.59-.62-1.86-2-2.32-2.48-1.55-1.66c-.26-.28-.55-.55-.78-.85q.16-.22.34-.42.29-.33.61-.64a6.7 6.7 0 0 1 5-1.7 6.7 6.7 0 0 1 3.9 1.68q.5.46.94.98.29.02.58 0l1.03.01h.82q.3.03.62 0-.1-.3-.29-.59a9 9 0 0 0-1.06-1.5 9.4 9.4 0 0 0-6.45-3.28A9.4 9.4 0 0 0 5.8 4.8 8.8 8.8 0 0 0 2.77 10l-.05.52-2.72.02c.02-.34.1-.7.16-1.03A11.9 11.9 0 0 1 11.29.02m22.03 9.83q-.08-.75-.67-1.17t-1.54-.42q-.67 0-1.15.2t-.73.54-.25.79q0 .37.16.64.18.27.47.46.3.18.65.3.35.13.71.22l1.1.27q.67.16 1.29.42.62.27 1.1.67.5.4.79.97.28.57.28 1.33 0 1.04-.52 1.82-.53.78-1.53 1.22t-2.4.44q-1.38 0-2.39-.42-1-.43-1.57-1.24t-.61-2h2.1q.04.62.37 1.03.34.4.87.61.54.2 1.2.2.7 0 1.22-.2.53-.22.83-.6.3-.37.3-.88 0-.46-.27-.75-.26-.3-.74-.5a7 7 0 0 0-1.1-.38l-1.34-.34q-1.45-.37-2.3-1.13-.83-.77-.83-2.03 0-1.04.56-1.82t1.55-1.21q.97-.44 2.2-.44 1.26 0 2.2.44.95.43 1.49 1.2.54.76.55 1.76zm4.11 8.52V6.61h4.41q1.36 0 2.28.5.92.51 1.4 1.4t.47 2q0 1.13-.48 2a3.4 3.4 0 0 1-1.4 1.39q-.93.5-2.3.5H38.9v-1.75h2.64q.79 0 1.3-.28a1.7 1.7 0 0 0 .74-.76q.25-.48.25-1.1t-.25-1.1a1.7 1.7 0 0 0-.75-.75q-.5-.27-1.3-.27h-1.96v9.98zM49.97 6.61v11.76h-2.13V6.61zm11.97 0v11.76h-1.9l-5.54-8h-.1v8h-2.12V6.61h1.9l5.54 8.02h.1V6.6zm2.32 11.76V6.61h7.65V8.4h-5.52v3.2h5.12v1.78H66.4v3.2h5.56v1.8z"/></g></svg>