<svg xmlns="http://www.w3.org/2000/svg" fill="none" viewBox="0 0 85 24"><g clip-path="url(#a)"><mask id="b" width="86" height="24" x="-1" y="0" maskUnits="userSpaceOnUse" style="mask-type:luminance"><path fill="#fff" d="M84.15 0H0v23.87h84.15z"/></mask><g fill="#fff" fill-opacity=".64" mask="url(#b)"><path d="m24.53 6.5 3.42 10.34h.13L31.5 6.49h2.61l-4.63 13.14h-2.94L21.92 6.5zm11.32 13.13V6.5h8.54v2h-6.16v3.57h5.72v2h-5.72v3.58h6.22v2zM57.62 6.5v13.14h-2.11l-6.2-8.95h-.1v8.95h-2.39V6.5h2.13l6.19 8.96h.11V6.49zm10.88 0h2.38v8.59q0 1.4-.67 2.48-.66 1.07-1.86 1.68t-2.8.6-2.81-.6q-1.2-.6-1.86-1.68-.66-1.07-.66-2.48v-8.6h2.38v8.39q0 .82.36 1.46t1.02 1 1.57.37 1.56-.36q.67-.37 1.03-1 .36-.65.36-1.47zm12.11 3.61q-.09-.84-.76-1.3-.66-.47-1.72-.47-.74 0-1.27.22-.53.23-.82.61t-.29.88q0 .41.19.71a2 2 0 0 0 .52.51q.33.21.73.35t.8.24l1.23.3a9 9 0 0 1 1.43.48q.7.3 1.24.74.55.45.87 1.08t.32 1.5q0 1.15-.59 2.03t-1.7 1.36q-1.11.5-2.7.5-1.53 0-2.66-.48-1.12-.48-1.75-1.39T73 15.75h2.34q.05.69.42 1.14.37.46.97.68t1.35.23q.77 0 1.36-.23t.92-.66a1.6 1.6 0 0 0 .34-.99q0-.5-.3-.84t-.83-.57a8 8 0 0 0-1.23-.4l-1.5-.4q-1.62-.41-2.56-1.26t-.94-2.26q0-1.16.63-2.04.64-.87 1.73-1.35t2.47-.49q1.4 0 2.45.49 1.06.48 1.66 1.34.6.85.62 1.96zm-76-4.8c.21.22.35.47.52.72l.62.9 2.34 3.4 1.3 1.92 4.9-6.95-.04 4.68c0 .07.02.27 0 .32-.06.11-.22.27-.3.37l-.75 1.02-2.2 3.04-1.58 2.25-2.96-4.22-.98-1.35-.58-.78c-.08-.1-.24-.27-.28-.39-.02-.08-.01-.22-.01-.3v-.8z"/><path d="m0 0 .33.4 1.83 2.38.36.46c.03.04.1.12.1.16q.03.1.02.21v13.2q.51.02 1.02.01H5.5q.55-.02 1.1.02.1.1.17.2l.31.47.7 1.03q.37.52.73 1.09H.02zm18.84.1h.04v19.5c-.14.05-.4.02-.55.02h-1.4l-6.6.01h-.03v-.03q.12-.23.28-.43l1.22-1.74q.2-.32.44-.61l3.63-.01h.36c.02-.01.01-1.78.02-2.5V3.98c0-.16-.02-.4.01-.55.04-.14.24-.34.33-.45l.59-.76.9-1.17q.36-.51.76-.96"/></g></g><defs><clipPath id="a"><path fill="#fff" d="M0 0h84.42v24H0z"/></clipPath></defs></svg>