<svg xmlns="http://www.w3.org/2000/svg" fill="none" viewBox="0 0 82 24"><g clip-path="url(#a)"><mask id="b" width="82" height="24" x="0" y="0" maskUnits="userSpaceOnUse" style="mask-type:luminance"><path fill="#fff" d="M81.89 0H0v23.75h81.89z"/></mask><g fill="#fff" fill-opacity=".64" mask="url(#b)"><path d="M24.64 19.46V6.16h8.03V7.6h-6.42v4.5h6v1.42h-6v4.52h6.52v1.43zm10.2-11.87V6.16h9.98V7.6h-4.18v11.87h-1.61V7.6zM47.3 19.46V6.16h1.61v5.93h7.1V6.16h1.6v13.3h-1.6v-5.95h-7.1v5.95zm13.54 0V6.16h8.03V7.6h-6.42v4.5h6v1.42h-6v4.52h6.52v1.43zm10.93 0V6.16h4.49q1.56 0 2.56.54 1 .52 1.48 1.44t.48 2.1-.48 2.09-1.47 1.42-2.54.52h-3.64V12.8h3.59q1.06 0 1.7-.3.67-.32.96-.9.3-.57.3-1.37t-.3-1.4-.96-.92-1.73-.33h-2.83v11.87zm6.26-5.97 3.27 5.97h-1.87l-3.22-5.97zM10.4.02l.12-.02 10.43 10.96-10.4 10.94-.08.04L0 10.95zm.71 2.45-.02 7.27v2.74c0 .46-.03.96.02 1.4l5.6-2.24 2.26-.9zm-1.36.09L2.09 10.6c.72.41 1.55.68 2.31 1l5.48 2.3-.01-8.74V3.42c0-.26.04-.62-.02-.86zm-6.54 9.97 6.55 6.85h.08l.02-4.07-3.64-1.54-1.8-.76c-.4-.17-.8-.36-1.21-.48m14.09.27-6.18 2.52c-.06.58-.03 1.18-.02 1.76l.01 2.27.06.04.07-.03 6.2-6.52-.02-.06z"/></g></g><defs><clipPath id="a"><path fill="#fff" d="M0 0h82v24H0z"/></clipPath></defs></svg>