<svg xmlns="http://www.w3.org/2000/svg" fill="none" viewBox="0 0 88 24"><g clip-path="url(#a)"><mask id="b" width="88" height="25" x="0" y="0" maskUnits="userSpaceOnUse" style="mask-type:luminance"><path fill="#fff" d="M87.36 0H0v24h87.36z"/></mask><g fill="#fff" fill-opacity=".64" mask="url(#b)"><path d="M27.06 18.06V6.3h7.37v1.53h-5.6v3.58h5.22v1.52h-5.21v3.6h5.66v1.53zM43.22 9.4a1.7 1.7 0 0 0-.76-1.26q-.67-.46-1.68-.46-.72 0-1.25.23t-.82.62-.29.9q0 .41.2.72.2.3.52.5.33.21.7.35t.72.22l1.15.3q.56.13 1.15.37.6.23 1.1.62.5.38.81.95t.32 1.36q0 1-.52 1.78-.5.77-1.48 1.22t-2.35.45q-1.32 0-2.29-.42-.96-.42-1.5-1.2-.55-.77-.61-1.83h1.78q.05.64.41 1.06.37.42.94.63.57.2 1.26.2.75 0 1.33-.24.6-.24.93-.66t.34-1q0-.53-.3-.86a2 2 0 0 0-.8-.55 8 8 0 0 0-1.12-.39l-1.4-.38q-1.4-.38-2.23-1.13-.82-.74-.82-1.97 0-1.02.55-1.78t1.49-1.17 2.12-.43q1.2 0 2.11.42.92.42 1.45 1.15t.55 1.68zm3.4-1.56V6.3h9.1v1.53h-3.66v10.23h-1.77V7.83zm10.72 10.23h-1.88L59.7 6.3h2.05l4.23 11.76H64.1l-3.32-9.62h-.1zm.32-4.6h6.11v1.49h-6.11zm8.04-5.63V6.3h9.1v1.53h-3.67v10.23h-1.76V7.83zm11.11 10.23V6.3h7.38v1.53h-5.6v3.58h5.21v1.52h-5.2v3.6h5.66v1.53zm-76.8 1.1V0h24v24H0zm0 0H1.3v-9.7h4.65c.01-.63-.01-5.96.06-6.04h12.03V7.2l3.32.02.01 3.87 1.35.03-.01 8.03 1.3.04V0H0zm24 1.43H0V24h24zM8.55 4.85h-1.2v4.6l2.93.04v2.18a9 9 0 0 0 5.99-3.46c.12-.17.28-.36.32-.57.05-.24.11-2.64.03-2.75v-.02zm8 5.25c-.45.33-.84.74-1.3 1.07a10 10 0 0 1-4.95 1.96c-.08 1.44-.02 2.91-.02 4.36v1.03c0 .18-.03.4.02.56l.08.06 6.24.02c.05-.14.02-.37.02-.52V10.2q-.03-.07-.1-.1m1.54 2.44c-.08.15-.05.36-.05.52v4.3q.02.9-.01 1.78l2.47.02c.21 0 .63.05.8-.05l.02-.05-.02-6.52zM7.02 10.92l-.03 4.4-1.39.27 1.33 2.51c.14.27.36.86.6 1.02l1.35.05v-8.26zm-4.34 0v3.78l2.56-.48.38-.11v-3.18zm1.1 5.03-1.09.23-.01 2.95 2.16.03h1.04c-.27-.45-1.53-3.1-1.78-3.23zm14.27-7.32-.02 2.45c.34 0 1.7.11 1.92-.04v-2.4z"/></g></g><defs><clipPath id="a"><path fill="#fff" d="M0 0h87.41v24H0z"/></clipPath></defs></svg>