<svg xmlns="http://www.w3.org/2000/svg" fill="none" viewBox="0 0 91 24"><g clip-path="url(#a)"><mask id="b" width="91" height="25" x="0" y="0" maskUnits="userSpaceOnUse" style="mask-type:luminance"><path fill="#fff" d="M90.4 0H0v24h90.4z"/></mask><g fill="#fff" fill-opacity=".64" mask="url(#b)"><path d="M42.97 8.45q-.11-1.36-1.1-2.2-.99-.83-2.55-.83-1.06 0-1.88.4t-1.29 1.05a2.6 2.6 0 0 0-.47 1.55q0 .56.22 1.01t.61.8.94.61a8 8 0 0 0 1.2.46l1.6.47a11 11 0 0 1 1.5.57q.7.33 1.2.78.52.45.8 1.05.3.6.3 1.39 0 1.15-.6 2.05-.59.91-1.68 1.43t-2.56.52q-1.4 0-2.44-.47-1.04-.48-1.64-1.32a4 4 0 0 1-.68-1.96h.9q.08.9.58 1.56.51.65 1.35 1 .85.36 1.93.36 1.17 0 2.06-.4t1.4-1.11.5-1.67q0-.76-.36-1.3-.36-.55-1.07-.95-.7-.4-1.74-.7l-1.7-.52q-1.7-.52-2.6-1.4-.89-.9-.89-2.23 0-1.12.6-1.99a4 4 0 0 1 1.61-1.36q1.03-.5 2.32-.5 1.3 0 2.29.5t1.57 1.37.64 1.98zm17.7 3.62q0 2.25-.77 3.93-.78 1.67-2.17 2.6-1.38.93-3.19.93t-3.2-.93q-1.38-.94-2.16-2.6-.78-1.69-.78-3.93t.78-3.91 2.17-2.6 3.2-.94q1.8 0 3.18.93t2.17 2.6.78 3.92m-.87 0q0-2.01-.68-3.5-.67-1.48-1.86-2.28-1.19-.82-2.73-.82-1.53 0-2.72.8-1.2.81-1.87 2.3t-.68 3.5q0 2 .67 3.5.67 1.48 1.86 2.3 1.2.8 2.74.8t2.73-.8q1.2-.82 1.86-2.3.68-1.48.68-3.5m5.92 7.26V4.82h4.47q1.38 0 2.37.54a3.7 3.7 0 0 1 1.52 1.5q.53.94.53 2.2 0 1.25-.53 2.2a3.7 3.7 0 0 1-1.52 1.47q-.98.53-2.36.53h-4v-.83h3.98q1.12 0 1.91-.41a3 3 0 0 0 1.22-1.17q.43-.76.43-1.79t-.43-1.8a3 3 0 0 0-1.22-1.2q-.8-.42-1.92-.42h-3.56v13.69zm5.96-6.58 3.57 6.58h-1.02l-3.55-6.58zm7.5 6.58h-.93L83.5 4.82h1.02l5.23 14.5h-.93L84.04 5.97h-.07zm1.33-5.46h6.97v.82h-6.97zm-56.37 2.98c-2.52 1.45-5.42 1.6-7.17 1.53 1.65-.85 4.25-2.53 5.83-5.28q.64-1.1 1-2.24c2.39-.67 4.7-.53 5.7-.41-.54 1.25-2.22 4.58-5.36 6.4m-17.67 0c-3.13-1.81-4.82-5.15-5.36-6.4 1-.12 3.31-.26 5.71.4q.35 1.15.99 2.25a14.3 14.3 0 0 0 5.83 5.28c-1.75.07-4.65-.08-7.17-1.53m.64-12.4c1.25.54 4.59 2.23 6.4 5.36.75 1.3 1.15 2.7 1.35 4a17 17 0 0 0-.09 4.15c-1.36-.62-4.48-2.29-6.21-5.29-1.82-3.14-1.6-6.86-1.45-8.22m8.2-2.2c.6.82 1.88 2.74 2.5 5.16a12 12 0 0 0-2.5 4.43 12 12 0 0 0-1.06-2.46 12 12 0 0 0-1.45-1.98c.62-2.4 1.9-4.33 2.5-5.15m6.75 10.42c-1.73 3-4.85 4.67-6.21 5.29.09-.88.17-2.4-.1-4.15.21-1.3.61-2.7 1.36-4 1.81-3.13 5.15-4.82 6.4-5.36.16 1.36.37 5.09-1.45 8.22m8.43-2.79a.4.4 0 0 0-.29-.2 16 16 0 0 0-6.13.22c.76-3.17.25-5.98.22-6.14a.43.43 0 0 0-.57-.33c-.15.05-2.85 1.02-5.2 3.26a16 16 0 0 0-2.88-5.42.43.43 0 0 0-.65 0c-.09.1-1.94 2.28-2.88 5.42a16 16 0 0 0-5.2-3.26.4.4 0 0 0-.36.03.4.4 0 0 0-.2.3c-.04.16-.55 2.97.21 6.14-3.18-.77-6-.25-6.13-.23a.43.43 0 0 0-.33.57c.07.2 1.77 4.94 5.95 7.35a14 14 0 0 0 6.85 1.68c1.24 0 2.14-.14 2.41-.19a15 15 0 0 0 2.43.19c1.86 0 4.47-.3 6.84-1.68 3.83-2.2 5.57-6.37 5.9-7.2l.05-.15a.4.4 0 0 0-.03-.36"/><path fill-rule="evenodd" d="M30.48 9.85v.53c-.32.84-2.07 5-5.9 7.21a14 14 0 0 1-6.84 1.68 15 15 0 0 1-2.42-.19c-.28.05-1.18.19-2.42.19-1.86 0-4.48-.3-6.85-1.68C1.87 15.2.17 10.44.1 10.24a.43.43 0 0 1 .33-.57c.13-.02 2.95-.53 6.13.23a16 16 0 0 1-.22-6.14q.04-.19.21-.3a.4.4 0 0 1 .36-.03c.15.05 2.85 1.02 5.2 3.26.94-3.14 2.8-5.33 2.88-5.42a.44.44 0 0 1 .65 0c.09.1 1.95 2.28 2.88 5.42a16 16 0 0 1 5.2-3.26.43.43 0 0 1 .57.33c.03.16.54 2.97-.22 6.14 3.18-.76 6-.25 6.13-.23q.17.04.28.18m-16.96-.04C11.7 6.68 8.38 5 7.12 4.45c-.16 1.36-.36 5.09 1.45 8.22 1.73 3 4.85 4.67 6.22 5.29a17 17 0 0 1 .08-4.15c-.2-1.3-.6-2.7-1.35-4m-7.04 7.04c-3.13-1.81-4.82-5.15-5.36-6.4 1-.12 3.32-.26 5.71.4q.36 1.15 1 2.25c1.58 2.75 4.18 4.43 5.82 5.28-1.75.07-4.65-.08-7.17-1.53m9.37 1.1c1.36-.6 4.49-2.28 6.22-5.28 1.8-3.14 1.6-6.86 1.44-8.22-1.25.54-4.58 2.23-6.4 5.36-.74 1.3-1.14 2.7-1.35 4 .26 1.74.18 3.27.09 4.15m8.3-1.11c-2.52 1.45-5.42 1.6-7.17 1.53 1.65-.85 4.25-2.52 5.83-5.27q.63-1.12 1-2.25c2.39-.67 4.7-.53 5.7-.41-.54 1.25-2.22 4.58-5.36 6.4M17.82 7.4a16 16 0 0 0-2.5-5.15c-.6.81-1.89 2.74-2.5 5.15a11.5 11.5 0 0 1 2.5 4.43 12 12 0 0 1 2.5-4.43" clip-rule="evenodd"/></g></g><defs><clipPath id="a"><path fill="#fff" d="M0 0h90.7v24H0z"/></clipPath></defs></svg>