<svg xmlns="http://www.w3.org/2000/svg" fill="none" viewBox="0 0 82 24"><g clip-path="url(#a)"><mask id="b" width="81" height="25" x="0" y="0" maskUnits="userSpaceOnUse" style="mask-type:luminance"><path fill="#fff" d="M80.77 0H0v24h80.77z"/></mask><g fill="#fff" fill-opacity=".64" mask="url(#b)"><path d="M40.09 8.63q-.11-1-.93-1.56t-2.07-.56q-.9 0-1.55.29-.65.27-1.01.76a2 2 0 0 0-.35 1.1q0 .52.24.9.24.37.64.62t.87.42.88.27l1.42.37q.7.17 1.42.46.73.29 1.35.76t1.01 1.18.39 1.68q0 1.23-.64 2.19-.63.95-1.83 1.5-1.2.56-2.9.56-1.63 0-2.82-.52t-1.86-1.46q-.68-.96-.75-2.27h2.2q.06.78.51 1.3.45.53 1.15.78.71.25 1.56.25.92 0 1.65-.3.73-.29 1.14-.81.42-.53.42-1.24 0-.65-.37-1.06-.36-.4-.98-.68a10 10 0 0 0-1.4-.47l-1.71-.47q-1.74-.48-2.76-1.4T31.99 8.8q0-1.26.68-2.2.68-.93 1.85-1.44 1.16-.53 2.62-.53t2.6.52 1.78 1.42.68 2.07zm4.93 10.7V4.82h9.1v1.89H47.2v4.42h6.44V13H47.2v4.44h7v1.89zm13.24 0h-2.32l5.22-14.51h2.53l5.22 14.5h-2.33l-4.1-11.86h-.11zm.4-5.68h7.53v1.84h-7.54zM71 19.33V4.82h2.2v12.62h6.57v1.89zM14.77 7.09c.76-.93 1.44-1.85 2.4-2.53a6.4 6.4 0 0 1 3.34-1.13c2.2-.08 4.3 1.25 5.62 3.22.05.08.14.2.18.29 3.02 4.62-.02 11.66-4.88 12.27-.5.07-1.03.06-1.53.08l-.77.03q-.33.02-.68-.02l-.09-.03c-1.08-.39-1.36-2.23-.3-2.86.35-.22.84-.18 1.24-.2l1.26-.05c3.91-.3 5.55-6 2.34-8.75a3.4 3.4 0 0 0-4.17-.24c-.6.5-1.09 1.12-1.6 1.73l-6.78 8.18q-.66.77-1.47 1.3c-1.45.89-3.1.93-4.64.27C.57 17.08-1.13 12.08.81 8.25c1.16-2.57 3.18-4.13 5.73-4.23 1.55-.07 3.1.5 4.34 1.57.34.3.66.6.8 1.08.36 1.3-.87 2.45-2 1.75-.3-.2-.58-.46-.88-.66a3.4 3.4 0 0 0-4.89.94 5.8 5.8 0 0 0-.86 3.85 4.3 4.3 0 0 0 1.42 2.77 2.7 2.7 0 0 0 3.49.01c.38-.32.71-.77 1.04-1.17z"/></g></g><defs><clipPath id="a"><path fill="#fff" d="M0 0h81.04v24H0z"/></clipPath></defs></svg>