<svg width="32" height="32" viewBox="0 0 32 32" fill="none" xmlns="http://www.w3.org/2000/svg">
<path d="M14.6753 27.9999H12.8072C8.02691 27.9999 5.63675 27.9999 4.15168 26.4866C2.66663 24.9734 2.66663 22.5378 2.66663 17.6666C2.66663 12.7954 2.66663 10.3598 4.15168 8.84653C5.63675 7.33325 8.02691 7.33325 12.8072 7.33325H17.8776C22.6578 7.33325 25.0481 7.33325 26.5332 8.84653C27.6757 10.0108 27.9392 11.7211 28 14.6666" stroke="white" stroke-width="2" stroke-linecap="round" stroke-linejoin="round"/>
<path d="M25.1334 25.1333L23.3334 23.9333V20.9333M17.3334 23.3333C17.3334 26.647 20.0196 29.3333 23.3334 29.3333C26.6471 29.3333 29.3334 26.647 29.3334 23.3333C29.3334 20.0195 26.6471 17.3333 23.3334 17.3333C20.0196 17.3333 17.3334 20.0195 17.3334 23.3333Z" stroke="white" stroke-width="2" stroke-linecap="round" stroke-linejoin="round"/>
<path d="M21.3334 7.33341L21.201 6.92133C20.5408 4.86793 20.2108 3.84124 19.4252 3.25399C18.6395 2.66675 17.596 2.66675 15.5088 2.66675H15.1579C13.0708 2.66675 12.0272 2.66675 11.2415 3.25399C10.4559 3.84124 10.1259 4.86793 9.46583 6.92133L9.33337 7.33341" stroke="white" stroke-width="2" stroke-linecap="round" stroke-linejoin="round"/>
</svg>
