<svg width="32" height="32" viewBox="0 0 32 32" fill="none" xmlns="http://www.w3.org/2000/svg">
<circle cx="16" cy="16" r="16" fill="#101010"/>
<path d="M16 6C10.4939 6 6 10.4939 6 16C6 21.5061 10.4939 26 16 26C21.5061 26 26 21.5061 26 16C26 10.4939 21.5061 6 16 6ZM8.79352 16C8.79352 13.9352 9.68421 12.0324 11.1012 10.7368C11.668 10.2105 12.6397 10.3725 13.0445 11.0607L15.5547 15.3927C15.7976 15.7976 15.7976 16.2834 15.5547 16.6883L13.0445 21.0202C12.6397 21.749 11.668 21.8704 11.0607 21.3036C9.68421 19.9271 8.79352 18.0648 8.79352 16ZM18.9555 20.9393L16.4453 16.6073C16.2024 16.2024 16.2024 15.7166 16.4453 15.3117L18.9555 10.9798C19.3603 10.2915 20.2915 10.1296 20.8988 10.6559C22.3158 11.9514 23.2065 13.8543 23.2065 15.919C23.2065 17.9838 22.3158 19.8866 20.8988 21.1822C20.2915 21.83 19.3603 21.668 18.9555 20.9393Z" fill="#00FF7F"/>
</svg>
