<svg width="51" height="51" viewBox="0 0 51 51" fill="none" xmlns="http://www.w3.org/2000/svg">
<g clip-path="url(#clip0_53_4049)">
<circle cx="25.5" cy="25.5" r="25.5" fill="#383838"/>
<g clip-path="url(#clip1_53_4049)">
<path d="M21.3502 26.093C21.3502 23.473 23.4736 21.3485 26.0937 21.3485C28.7137 21.3485 30.8382 23.473 30.8382 26.093C30.8382 28.7131 28.7137 30.8376 26.0937 30.8376C23.4736 30.8376 21.3502 28.7131 21.3502 26.093ZM18.7854 26.093C18.7854 30.1294 22.0573 33.4013 26.0937 33.4013C30.13 33.4013 33.4019 30.1294 33.4019 26.093C33.4019 22.0567 30.13 18.7848 26.0937 18.7848C22.0573 18.7848 18.7854 22.0567 18.7854 26.093ZM31.9833 18.495C31.9832 18.8328 32.0832 19.163 32.2708 19.444C32.4583 19.7249 32.725 19.9439 33.037 20.0733C33.349 20.2027 33.6924 20.2367 34.0238 20.1709C34.3551 20.1051 34.6595 19.9426 34.8984 19.7038C35.1374 19.4651 35.3001 19.1608 35.3662 18.8295C35.4322 18.4983 35.3985 18.1549 35.2694 17.8427C35.1402 17.5306 34.9214 17.2638 34.6407 17.076C34.3599 16.8882 34.0297 16.7879 33.6919 16.7878H33.6912C33.2384 16.788 32.8043 16.9679 32.484 17.288C32.1638 17.6081 31.9837 18.0422 31.9833 18.495ZM20.3437 37.678C18.9561 37.6148 18.2019 37.3836 17.7007 37.1884C17.0362 36.9297 16.5621 36.6216 16.0636 36.1238C15.5651 35.626 15.2565 35.1523 14.999 34.4878C14.8036 33.9868 14.5725 33.2324 14.5094 31.8448C14.4404 30.3446 14.4266 29.8939 14.4266 26.0931C14.4266 22.2924 14.4415 21.8429 14.5094 20.3415C14.5726 18.9539 14.8054 18.2009 14.999 17.6984C15.2577 17.0339 15.5658 16.5598 16.0636 16.0613C16.5614 15.5629 17.035 15.2543 17.7007 14.9967C18.2016 14.8014 18.9561 14.5702 20.3437 14.5071C21.8439 14.4381 22.2946 14.4244 26.0937 14.4244C29.8927 14.4244 30.3438 14.4393 31.8453 14.5071C33.2329 14.5703 33.9859 14.8032 34.4884 14.9967C35.1529 15.2543 35.627 15.5635 36.1254 16.0613C36.6239 16.5591 36.9314 17.0339 37.19 17.6984C37.3854 18.1994 37.6166 18.9539 37.6796 20.3415C37.7486 21.8429 37.7624 22.2924 37.7624 26.0931C37.7624 29.8939 37.7486 30.3433 37.6796 31.8448C37.6164 33.2324 37.3842 33.9866 37.19 34.4878C36.9314 35.1523 36.6232 35.6264 36.1254 36.1238C35.6276 36.6211 35.1529 36.9297 34.4884 37.1884C33.9874 37.3838 33.2329 37.6149 31.8453 37.678C30.3451 37.747 29.8944 37.7608 26.0937 37.7608C22.2929 37.7608 21.8435 37.747 20.3437 37.678ZM20.2259 11.9467C18.7107 12.0157 17.6754 12.2559 16.7712 12.6077C15.8348 12.9711 15.0421 13.4585 14.25 14.2494C13.4579 15.0402 12.9717 15.8342 12.6084 16.7706C12.2565 17.6753 12.0163 18.7101 11.9473 20.2252C11.8772 21.7428 11.8611 22.2279 11.8611 26.093C11.8611 29.9581 11.8772 30.4433 11.9473 31.9608C12.0163 33.4761 12.2565 34.5107 12.6084 35.4155C12.9717 36.3513 13.458 37.1461 14.25 37.9367C15.042 38.7272 15.8348 39.214 16.7712 39.5783C17.6771 39.9301 18.7107 40.1704 20.2259 40.2394C21.7442 40.3084 22.2285 40.3256 26.0937 40.3256C29.9588 40.3256 30.4439 40.3095 31.9615 40.2394C33.4767 40.1704 34.5114 39.9301 35.4161 39.5783C36.3519 39.214 37.1452 38.7275 37.9373 37.9367C38.7294 37.1458 39.2146 36.3513 39.5789 35.4155C39.9308 34.5107 40.1722 33.476 40.24 31.9608C40.309 30.4421 40.3251 29.9581 40.3251 26.093C40.3251 22.2279 40.309 21.7428 40.24 20.2252C40.171 18.71 39.9308 17.6747 39.5789 16.7706C39.2146 15.8348 38.7282 15.0415 37.9373 14.2494C37.1464 13.4572 36.3519 12.9711 35.4172 12.6077C34.5114 12.2559 33.4766 12.0145 31.9626 11.9467C30.4451 11.8777 29.9599 11.8605 26.0948 11.8605C22.2297 11.8605 21.7442 11.8765 20.2259 11.9467Z" fill="url(#paint0_radial_53_4049)"/>
<path d="M21.3502 26.093C21.3502 23.473 23.4736 21.3485 26.0937 21.3485C28.7137 21.3485 30.8382 23.473 30.8382 26.093C30.8382 28.7131 28.7137 30.8376 26.0937 30.8376C23.4736 30.8376 21.3502 28.7131 21.3502 26.093ZM18.7854 26.093C18.7854 30.1294 22.0573 33.4013 26.0937 33.4013C30.13 33.4013 33.4019 30.1294 33.4019 26.093C33.4019 22.0567 30.13 18.7848 26.0937 18.7848C22.0573 18.7848 18.7854 22.0567 18.7854 26.093ZM31.9833 18.495C31.9832 18.8328 32.0832 19.163 32.2708 19.444C32.4583 19.7249 32.725 19.9439 33.037 20.0733C33.349 20.2027 33.6924 20.2367 34.0238 20.1709C34.3551 20.1051 34.6595 19.9426 34.8984 19.7038C35.1374 19.4651 35.3001 19.1608 35.3662 18.8295C35.4322 18.4983 35.3985 18.1549 35.2694 17.8427C35.1402 17.5306 34.9214 17.2638 34.6407 17.076C34.3599 16.8882 34.0297 16.7879 33.6919 16.7878H33.6912C33.2384 16.788 32.8043 16.9679 32.484 17.288C32.1638 17.6081 31.9837 18.0422 31.9833 18.495ZM20.3437 37.678C18.9561 37.6148 18.2019 37.3836 17.7007 37.1884C17.0362 36.9297 16.5621 36.6216 16.0636 36.1238C15.5651 35.626 15.2565 35.1523 14.999 34.4878C14.8036 33.9868 14.5725 33.2324 14.5094 31.8448C14.4404 30.3446 14.4266 29.8939 14.4266 26.0931C14.4266 22.2924 14.4415 21.8429 14.5094 20.3415C14.5726 18.9539 14.8054 18.2009 14.999 17.6984C15.2577 17.0339 15.5658 16.5598 16.0636 16.0613C16.5614 15.5629 17.035 15.2543 17.7007 14.9967C18.2016 14.8014 18.9561 14.5702 20.3437 14.5071C21.8439 14.4381 22.2946 14.4244 26.0937 14.4244C29.8927 14.4244 30.3438 14.4393 31.8453 14.5071C33.2329 14.5703 33.9859 14.8032 34.4884 14.9967C35.1529 15.2543 35.627 15.5635 36.1254 16.0613C36.6239 16.5591 36.9314 17.0339 37.19 17.6984C37.3854 18.1994 37.6166 18.9539 37.6796 20.3415C37.7486 21.8429 37.7624 22.2924 37.7624 26.0931C37.7624 29.8939 37.7486 30.3433 37.6796 31.8448C37.6164 33.2324 37.3842 33.9866 37.19 34.4878C36.9314 35.1523 36.6232 35.6264 36.1254 36.1238C35.6276 36.6211 35.1529 36.9297 34.4884 37.1884C33.9874 37.3838 33.2329 37.6149 31.8453 37.678C30.3451 37.747 29.8944 37.7608 26.0937 37.7608C22.2929 37.7608 21.8435 37.747 20.3437 37.678ZM20.2259 11.9467C18.7107 12.0157 17.6754 12.2559 16.7712 12.6077C15.8348 12.9711 15.0421 13.4585 14.25 14.2494C13.4579 15.0402 12.9717 15.8342 12.6084 16.7706C12.2565 17.6753 12.0163 18.7101 11.9473 20.2252C11.8772 21.7428 11.8611 22.2279 11.8611 26.093C11.8611 29.9581 11.8772 30.4433 11.9473 31.9608C12.0163 33.4761 12.2565 34.5107 12.6084 35.4155C12.9717 36.3513 13.458 37.1461 14.25 37.9367C15.042 38.7272 15.8348 39.214 16.7712 39.5783C17.6771 39.9301 18.7107 40.1704 20.2259 40.2394C21.7442 40.3084 22.2285 40.3256 26.0937 40.3256C29.9588 40.3256 30.4439 40.3095 31.9615 40.2394C33.4767 40.1704 34.5114 39.9301 35.4161 39.5783C36.3519 39.214 37.1452 38.7275 37.9373 37.9367C38.7294 37.1458 39.2146 36.3513 39.5789 35.4155C39.9308 34.5107 40.1722 33.476 40.24 31.9608C40.309 30.4421 40.3251 29.9581 40.3251 26.093C40.3251 22.2279 40.309 21.7428 40.24 20.2252C40.171 18.71 39.9308 17.6747 39.5789 16.7706C39.2146 15.8348 38.7282 15.0415 37.9373 14.2494C37.1464 13.4572 36.3519 12.9711 35.4172 12.6077C34.5114 12.2559 33.4766 12.0145 31.9626 11.9467C30.4451 11.8777 29.9599 11.8605 26.0948 11.8605C22.2297 11.8605 21.7442 11.8765 20.2259 11.9467Z" fill="url(#paint1_radial_53_4049)"/>
</g>
</g>
<defs>
<radialGradient id="paint0_radial_53_4049" cx="0" cy="0" r="1" gradientUnits="userSpaceOnUse" gradientTransform="translate(15.6429 40.46) scale(37.1588 37.1588)">
<stop offset="0.09" stop-color="#FA8F21"/>
<stop offset="0.78" stop-color="#D82D7E"/>
</radialGradient>
<radialGradient id="paint1_radial_53_4049" cx="0" cy="0" r="1" gradientUnits="userSpaceOnUse" gradientTransform="translate(29.1239 41.7353) scale(29.2863)">
<stop offset="0.64" stop-color="#8C3AAA" stop-opacity="0"/>
<stop offset="1" stop-color="#8C3AAA"/>
</radialGradient>
<clipPath id="clip0_53_4049">
<rect width="51" height="51" fill="white"/>
</clipPath>
<clipPath id="clip1_53_4049">
<rect width="28.4651" height="28.4651" fill="white" transform="translate(11.8605 11.8605)"/>
</clipPath>
</defs>
</svg>
