<svg width="208" height="208" viewBox="0 0 208 208" fill="none" xmlns="http://www.w3.org/2000/svg">
<g filter="url(#filter0_d_53_4130)">
<rect x="44" y="44" width="96" height="96" rx="48" fill="white"/>
<g clip-path="url(#clip0_53_4130)">
<path d="M93.7872 84.6005C97.6535 84.6005 100.788 81.4663 100.788 77.6C100.788 73.7338 97.6535 70.5995 93.7872 70.5995C89.9209 70.5995 86.7867 73.7338 86.7867 77.6C86.7867 81.4663 89.9209 84.6005 93.7872 84.6005Z" fill="#7B83EB"/>
<path opacity="0.1" d="M93.2877 79.1H86.9472L86.9787 79.2395L86.9817 79.2515L87.0147 79.3805C87.4754 81.1276 88.5932 82.6291 90.1347 83.5716C91.6762 84.5141 93.5222 84.8247 95.2872 84.4385V81.0995C95.2856 80.5697 95.0745 80.0621 94.6998 79.6874C94.3252 79.3128 93.8175 79.1016 93.2877 79.1Z" fill="black"/>
<path opacity="0.2" d="M91.7877 80.6H87.4617C88.0295 81.7971 88.9252 82.8084 90.0449 83.5166C91.1647 84.2247 92.4623 84.6006 93.7872 84.6005V82.5995C93.7856 82.0697 93.5744 81.5621 93.1998 81.1874C92.8252 80.8128 92.3175 80.6016 91.7877 80.6Z" fill="black"/>
<path d="M109.537 85.1C112.437 85.1 114.787 82.7495 114.787 79.85C114.787 76.9505 112.437 74.6 109.537 74.6C106.638 74.6 104.287 76.9505 104.287 79.85C104.287 82.7495 106.638 85.1 109.537 85.1Z" fill="#5059C9"/>
<path d="M114.037 86.6H102.246C101.991 86.6 101.747 86.7012 101.567 86.8812C101.387 87.0612 101.286 87.3054 101.286 87.56V99.725C101.253 101.486 101.827 103.204 102.91 104.592C103.993 105.981 105.521 106.955 107.236 107.351C108.329 107.58 109.459 107.563 110.544 107.3C111.629 107.038 112.642 106.537 113.509 105.833C114.376 105.13 115.076 104.242 115.556 103.234C116.037 102.226 116.286 101.124 116.287 100.007V88.85C116.287 88.2533 116.05 87.681 115.628 87.259C115.206 86.8371 114.634 86.6 114.037 86.6Z" fill="#5059C9"/>
<path d="M105.787 88.85V103.1C105.789 105.741 104.918 108.308 103.312 110.404C101.705 112.5 99.4509 114.006 96.9002 114.69C94.3494 115.374 91.6443 115.197 89.2046 114.186C86.7648 113.175 84.727 111.387 83.4072 109.1C83.1185 108.62 82.8678 108.119 82.6572 107.6C82.4609 107.111 82.2955 106.61 82.1622 106.1C81.9149 105.119 81.789 104.112 81.7872 103.1V88.85C81.7868 88.5545 81.8447 88.2617 81.9577 87.9885C82.0706 87.7154 82.2363 87.4672 82.4453 87.2582C82.6543 87.0492 82.9025 86.8834 83.1757 86.7705C83.4488 86.6576 83.7416 86.5996 84.0372 86.6H103.537C103.833 86.5996 104.126 86.6576 104.399 86.7705C104.672 86.8834 104.92 87.0492 105.129 87.2582C105.338 87.4672 105.504 87.7154 105.617 87.9885C105.73 88.2617 105.788 88.5545 105.787 88.85Z" fill="#7B83EB"/>
<path opacity="0.2" d="M91.7877 80.6H87.4617C88.0295 81.7971 88.9252 82.8084 90.0449 83.5166C91.1647 84.2247 92.4623 84.6006 93.7872 84.6005V82.5995C93.7856 82.0697 93.5744 81.5621 93.1998 81.1874C92.8252 80.8128 92.3175 80.6016 91.7877 80.6Z" fill="black"/>
<path opacity="0.1" d="M95.2872 86.6V105.605C95.2872 106.057 95.1324 106.496 94.8486 106.848C94.5648 107.2 94.1691 107.444 93.7272 107.54C93.5861 107.582 93.4394 107.602 93.2922 107.6H82.6572C82.4609 107.111 82.2955 106.61 82.1622 106.1C81.9149 105.119 81.789 104.112 81.7872 103.1V88.85C81.7868 88.5545 81.8447 88.2617 81.9577 87.9885C82.0706 87.7154 82.2363 87.4672 82.4453 87.2582C82.6543 87.0492 82.9025 86.8834 83.1757 86.7705C83.4488 86.6576 83.7416 86.5996 84.0372 86.6H95.2872Z" fill="black"/>
<path opacity="0.2" d="M93.7872 86.6V107.105C93.7894 107.252 93.7691 107.399 93.7272 107.54C93.6313 107.982 93.387 108.378 93.035 108.661C92.6829 108.945 92.2444 109.1 91.7922 109.1H83.4072C83.1185 108.62 82.8678 108.119 82.6572 107.6C82.4609 107.111 82.2955 106.61 82.1622 106.1C81.9149 105.119 81.789 104.112 81.7872 103.1V88.85C81.7868 88.5545 81.8447 88.2617 81.9577 87.9885C82.0706 87.7154 82.2363 87.4672 82.4453 87.2582C82.6543 87.0492 82.9025 86.8834 83.1757 86.7705C83.4488 86.6576 83.7416 86.5996 84.0372 86.6H93.7872Z" fill="black"/>
<path opacity="0.2" d="M93.7872 86.6V104.105C93.7848 104.633 93.5739 105.139 93.2002 105.513C92.8266 105.887 92.3206 106.098 91.7922 106.1H82.1622C81.9149 105.119 81.789 104.112 81.7872 103.1V88.85C81.7868 88.5545 81.8447 88.2617 81.9577 87.9885C82.0706 87.7154 82.2363 87.4672 82.4453 87.2582C82.6543 87.0492 82.9025 86.8834 83.1757 86.7705C83.4488 86.6576 83.7416 86.5996 84.0372 86.6H93.7872Z" fill="black"/>
<path opacity="0.2" d="M84.0372 86.6C83.7416 86.5996 83.4488 86.6576 83.1757 86.7705C82.9025 86.8834 82.6543 87.0492 82.4453 87.2582C82.2363 87.4672 82.0706 87.7154 81.9577 87.9885C81.8447 88.2617 81.7868 88.5545 81.7872 88.85V103.1C81.789 104.112 81.9149 105.119 82.1622 106.1H90.2922C90.8206 106.098 91.3266 105.887 91.7003 105.513C92.0739 105.139 92.2848 104.633 92.2872 104.105V86.6H84.0372Z" fill="black"/>
<path d="M70.2867 80.6H90.2877C90.818 80.6 91.3266 80.8107 91.7016 81.1857C92.0766 81.5607 92.2872 82.0692 92.2872 82.5995V102.601C92.2872 103.131 92.0766 103.639 91.7016 104.014C91.3266 104.389 90.818 104.6 90.2877 104.6H70.2867C69.7564 104.6 69.2478 104.389 68.8729 104.014C68.4979 103.639 68.2872 103.131 68.2872 102.601V82.5995C68.2872 82.0692 68.4979 81.5607 68.8729 81.1857C69.2478 80.8107 69.7564 80.6 70.2867 80.6Z" fill="#4B53BC"/>
<path d="M86.2572 88.0625H81.7722V100.093H78.8292V88.0625H74.3172V85.1075H86.2572V88.0625Z" fill="white"/>
</g>
</g>
<defs>
<filter id="filter0_d_53_4130" x="0" y="0" width="208" height="208" filterUnits="userSpaceOnUse" color-interpolation-filters="sRGB">
<feFlood flood-opacity="0" result="BackgroundImageFix"/>
<feColorMatrix in="SourceAlpha" type="matrix" values="0 0 0 0 0 0 0 0 0 0 0 0 0 0 0 0 0 0 127 0" result="hardAlpha"/>
<feOffset dx="12" dy="12"/>
<feGaussianBlur stdDeviation="28"/>
<feComposite in2="hardAlpha" operator="out"/>
<feColorMatrix type="matrix" values="0 0 0 0 0 0 0 0 0 0 0 0 0 0 0 0 0 0 0.15 0"/>
<feBlend mode="normal" in2="BackgroundImageFix" result="effect1_dropShadow_53_4130"/>
<feBlend mode="normal" in="SourceGraphic" in2="effect1_dropShadow_53_4130" result="shape"/>
</filter>
<clipPath id="clip0_53_4130">
<rect width="48.8202" height="48" fill="white" transform="translate(68 68.6)"/>
</clipPath>
</defs>
</svg>
