<svg width="225" height="225" viewBox="0 0 225 225" fill="none" xmlns="http://www.w3.org/2000/svg">
<g filter="url(#filter0_d_53_4113)">
<rect x="44" y="44" width="113" height="113" rx="56.5" fill="white"/>
<g clip-path="url(#clip0_53_4113)">
<path d="M93.245 74.6859C84.9634 75.3097 77.9232 75.8833 77.5922 75.9505C76.6641 76.119 75.8198 76.7598 75.4228 77.6032L75.075 78.3453L75.1085 96.0323L75.1578 113.719L75.6878 114.815C75.9863 115.422 78.007 118.255 80.2099 121.171C84.5664 126.921 84.8807 127.242 86.5368 127.41C87.0176 127.46 90.6283 127.292 94.5376 127.056C98.4637 126.803 104.757 126.415 108.534 126.197C124.667 125.2 123.838 125.284 124.765 124.475C125.925 123.497 125.842 125.098 125.891 103.602C125.925 85.3751 125.908 84.1788 125.643 83.6222C125.329 82.9984 124.765 82.5602 117.411 77.2993C112.492 73.7924 112.144 73.6069 109.94 73.5728C109.03 73.5397 101.51 74.0451 93.245 74.6859ZM111.862 76.9954C112.558 77.3153 117.643 80.9235 118.388 81.6155C118.587 81.8181 118.653 81.9866 118.554 82.0879C118.322 82.2905 86.85 84.1958 85.9397 84.0604C85.526 83.9933 84.9132 83.7406 84.5654 83.5038C83.124 82.509 79.5468 79.5246 79.5468 79.306C79.5468 78.7324 79.4305 78.7324 93.4608 77.7045C96.1445 77.519 100.55 77.182 103.234 76.9624C109.047 76.49 110.786 76.5071 111.862 76.9954ZM121.867 86.2185C122.098 86.4542 122.298 86.9095 122.364 87.3477C122.413 87.7529 122.446 95.3062 122.413 104.107C122.364 119.214 122.347 120.158 122.065 120.597C121.899 120.866 121.568 121.153 121.319 121.237C120.625 121.524 87.6461 123.43 86.9673 123.227C86.6531 123.143 86.2215 122.873 85.99 122.637L85.5919 122.199L85.5427 105.912C85.5092 94.4809 85.5427 89.4226 85.6757 88.9673C85.7753 88.6304 86.0235 88.2252 86.2393 88.0909C86.5378 87.8883 88.4925 87.7198 95.2175 87.3157C99.9386 87.0459 107.243 86.5907 111.434 86.338C121.403 85.7131 121.37 85.7131 121.867 86.2185Z" fill="#1D1D21"/>
<path d="M113.005 91.7994C111.216 91.9177 109.626 92.0862 109.444 92.1875C108.897 92.4743 108.566 92.9467 108.5 93.4862C108.451 94.0428 108.616 94.1099 110.404 94.3296L111.182 94.4309V101.63C111.182 105.912 111.116 108.745 111.034 108.661C110.951 108.56 108.599 104.919 105.799 100.568C103 96.2019 100.681 92.6097 100.648 92.5767C100.614 92.5425 98.7926 92.6438 96.6064 92.7963C93.9227 92.9818 92.4489 93.1503 92.1504 93.3188C91.6696 93.5715 91.1395 94.465 91.1395 95.0557C91.1395 95.4097 91.7691 95.5952 93.0942 95.5952H93.7897V116.3L92.6636 116.654C91.7858 116.923 91.4873 117.092 91.3386 117.429C91.0735 118.003 91.0903 118.525 91.3553 118.525C91.4548 118.525 93.3267 118.407 95.4793 118.272C99.7364 118.02 100.216 117.901 100.663 117.008C100.796 116.738 100.912 116.451 100.912 116.367C100.912 116.3 100.332 116.097 99.6358 115.929C98.9235 115.76 98.2112 115.592 98.0625 115.558C97.7807 115.473 97.7639 114.951 97.7639 107.7V99.9274L102.799 107.97C108.083 116.4 108.746 117.362 109.558 117.783C110.569 118.322 113.136 117.951 114.428 117.092L114.826 116.839L114.859 105.341L114.908 93.8252L115.786 93.6568C116.83 93.4542 117.31 92.9658 117.31 92.1224C117.31 91.5829 117.277 91.5488 116.78 91.5659C116.484 91.5797 114.777 91.681 113.005 91.7994Z" fill="#1D1D21"/>
</g>
</g>
<defs>
<filter id="filter0_d_53_4113" x="0" y="0" width="225" height="225" filterUnits="userSpaceOnUse" color-interpolation-filters="sRGB">
<feFlood flood-opacity="0" result="BackgroundImageFix"/>
<feColorMatrix in="SourceAlpha" type="matrix" values="0 0 0 0 0 0 0 0 0 0 0 0 0 0 0 0 0 0 127 0" result="hardAlpha"/>
<feOffset dx="12" dy="12"/>
<feGaussianBlur stdDeviation="28"/>
<feComposite in2="hardAlpha" operator="out"/>
<feColorMatrix type="matrix" values="0 0 0 0 0 0 0 0 0 0 0 0 0 0 0 0 0 0 0.15 0"/>
<feBlend mode="normal" in2="BackgroundImageFix" result="effect1_dropShadow_53_4113"/>
<feBlend mode="normal" in="SourceGraphic" in2="effect1_dropShadow_53_4113" result="shape"/>
</filter>
<clipPath id="clip0_53_4113">
<rect width="50.85" height="55.0875" fill="white" transform="translate(75.075 72.9562)"/>
</clipPath>
</defs>
</svg>
