<svg width="192" height="192" viewBox="0 0 192 192" fill="none" xmlns="http://www.w3.org/2000/svg">
<g filter="url(#filter0_d_53_4125)">
<rect x="44" y="44" width="80" height="80" rx="40" fill="white"/>
<g clip-path="url(#clip0_53_4125)">
<path d="M70.3456 72.2473H74.1024C74.2053 72.2471 74.3039 72.2061 74.3767 72.1334C74.4494 72.0607 74.4905 71.9621 74.4908 71.8593C74.4908 71.8578 74.4453 68.6396 74.4453 67.7456V67.7347C74.4453 67.0002 74.5992 66.3597 74.8685 65.8222L74.9964 65.5815C74.98 65.5845 74.965 65.5927 74.9536 65.6048L67.659 72.8383C67.6456 72.8493 67.6361 72.8643 67.6318 72.8811C67.7827 72.8064 67.9892 72.7039 68.0181 72.6912C68.6528 72.4041 69.4233 72.2473 70.3456 72.2473Z" fill="#74BB44"/>
<path d="M99.557 71.4597C99.2587 69.8637 98.3092 69.077 97.451 68.7675C96.5257 68.4329 94.648 68.0862 92.2902 67.8086C90.3924 67.5847 88.1618 67.603 86.8145 67.6441C86.6529 66.5366 85.8762 65.5248 85.0068 65.1745C82.692 64.2431 79.1129 64.4681 78.1951 64.7253C77.4647 64.9297 76.6567 65.3476 76.2075 65.9917C75.906 66.4226 75.7105 66.9737 75.709 67.7442C75.709 68.1801 75.7211 69.2069 75.7323 70.1198C75.743 71.0347 75.7557 71.8537 75.7557 71.8596C75.7551 72.2518 75.599 72.6277 75.3217 72.905C75.0443 73.1822 74.6683 73.3382 74.2761 73.3386H70.5213C69.7207 73.3386 69.1084 73.4729 68.6409 73.6853C68.1728 73.8979 67.8412 74.1844 67.5893 74.5234C67.0881 75.1962 67.001 76.0269 67.0031 76.8751C67.0031 76.8751 67.0101 77.5676 67.177 78.9087C67.3161 79.9459 68.4413 87.1938 69.5101 89.3982C69.9244 90.2552 70.2009 90.6134 71.0145 90.9914C72.8284 91.7682 76.9712 92.6323 78.9136 92.8798C80.8515 93.1278 82.0683 93.6488 82.793 92.1288C82.7954 92.124 82.9386 91.7513 83.1347 91.2002C83.7644 89.2936 83.8521 87.6011 83.8521 86.377C83.8521 86.252 84.0349 86.2467 84.0349 86.377C84.0349 87.2417 83.8692 90.3013 86.1807 91.1214C87.0936 91.4445 88.9857 91.7333 90.9098 91.9589C92.6484 92.1595 93.91 92.8429 93.91 97.305C93.91 100.019 93.34 100.391 90.3599 100.391C87.9438 100.391 87.0227 100.453 87.0227 98.535C87.0227 96.983 88.5572 97.1461 89.6942 97.1461C90.2025 97.1461 89.8333 96.7686 89.8333 95.8109C89.8333 94.8579 90.4299 94.3077 89.8658 94.2941C85.9341 94.1854 83.6202 94.2894 83.6202 99.2075C83.6202 103.671 85.3284 104.5 90.9098 104.5C95.2851 104.5 96.8264 104.357 98.6335 98.7515C98.9911 97.6449 99.8564 94.2681 100.379 88.5972C100.709 85.0125 100.066 74.1906 99.557 71.4597ZM91.9293 83.4204C91.3888 83.4018 90.869 83.4358 90.3844 83.5138C90.5211 82.4122 90.9757 81.059 92.5872 81.1157C94.3713 81.1774 94.6206 82.8635 94.6268 84.0049C93.8749 83.67 92.9437 83.4562 91.9293 83.4204Z" fill="#74BB44"/>
</g>
</g>
<defs>
<filter id="filter0_d_53_4125" x="0" y="0" width="192" height="192" filterUnits="userSpaceOnUse" color-interpolation-filters="sRGB">
<feFlood flood-opacity="0" result="BackgroundImageFix"/>
<feColorMatrix in="SourceAlpha" type="matrix" values="0 0 0 0 0 0 0 0 0 0 0 0 0 0 0 0 0 0 127 0" result="hardAlpha"/>
<feOffset dx="12" dy="12"/>
<feGaussianBlur stdDeviation="28"/>
<feComposite in2="hardAlpha" operator="out"/>
<feColorMatrix type="matrix" values="0 0 0 0 0 0 0 0 0 0 0 0 0 0 0 0 0 0 0.15 0"/>
<feBlend mode="normal" in2="BackgroundImageFix" result="effect1_dropShadow_53_4125"/>
<feBlend mode="normal" in="SourceGraphic" in2="effect1_dropShadow_53_4125" result="shape"/>
</filter>
<clipPath id="clip0_53_4125">
<rect width="33.472" height="40" fill="white" transform="translate(67 64.5)"/>
</clipPath>
</defs>
</svg>
