<svg width="55" height="55" viewBox="0 0 55 55" fill="none" xmlns="http://www.w3.org/2000/svg">
<g clip-path="url(#clip0_53_4054)">
<circle cx="27.5" cy="27.5" r="27.5" fill="#383838"/>
<g clip-path="url(#clip1_53_4054)">
<path fill-rule="evenodd" clip-rule="evenodd" d="M26.8605 12.7907C18.2728 12.7907 11.6173 19.0749 11.6173 27.5621C11.6173 32.0017 13.4391 35.8377 16.405 38.4881C16.6534 38.7118 16.8037 39.0212 16.8159 39.3552L16.8988 42.0636C16.9264 42.9277 17.8188 43.4884 18.6102 43.1422L21.6343 41.8094C21.8901 41.6962 22.1771 41.6745 22.447 41.7481C23.8364 42.1311 25.3178 42.3333 26.8605 42.3333C35.4481 42.3333 42.1036 36.0492 42.1036 27.562C42.1036 19.0749 35.4481 12.7907 26.8605 12.7907Z" fill="url(#paint0_linear_53_4054)"/>
<path fill-rule="evenodd" clip-rule="evenodd" d="M17.7085 31.8823L22.1863 24.7862C22.8979 23.6587 24.4252 23.3767 25.4925 24.1765L29.0533 26.8452C29.2124 26.964 29.4058 27.028 29.6044 27.0275C29.803 27.0269 29.996 26.9619 30.1544 26.8421L34.9636 23.196C35.6045 22.7089 36.445 23.478 36.0124 24.1581L31.5377 31.2511C30.8261 32.3786 29.2988 32.6606 28.2314 31.8608L24.6706 29.1921C24.5116 29.0733 24.3182 29.0093 24.1196 29.0098C23.921 29.0104 23.728 29.0754 23.5696 29.1952L18.7574 32.8444C18.1164 33.3316 17.276 32.5625 17.7085 31.8823Z" fill="white"/>
</g>
</g>
<defs>
<linearGradient id="paint0_linear_53_4054" x1="6108.87" y1="12.7907" x2="6108.87" y2="12279.5" gradientUnits="userSpaceOnUse">
<stop stop-color="#00B2FF"/>
<stop offset="1" stop-color="#006AFF"/>
</linearGradient>
<clipPath id="clip0_53_4054">
<rect width="55" height="55" fill="white"/>
</clipPath>
<clipPath id="clip1_53_4054">
<rect width="30.6977" height="30.6977" fill="white" transform="translate(11.5116 12.7907)"/>
</clipPath>
</defs>
</svg>
