<svg width="48" height="48" viewBox="0 0 48 48" fill="none" xmlns="http://www.w3.org/2000/svg">
<g clip-path="url(#clip0_53_4060)">
<circle cx="24" cy="24" r="24" fill="#383838"/>
<g clip-path="url(#clip1_53_4060)">
<path d="M19.6562 36.8372C29.9656 36.8372 35.6035 28.3811 35.6035 21.0482C35.6035 20.8081 35.5985 20.569 35.5876 20.331C36.6846 19.5451 37.6313 18.572 38.3834 17.4574C37.3791 17.8995 36.2984 18.197 35.1647 18.3312C36.3219 17.6442 37.2103 16.5573 37.6294 15.2619C36.5292 15.9081 35.3255 16.3636 34.0703 16.6088C33.0476 15.5302 31.5914 14.8556 29.9791 14.8556C26.8839 14.8556 24.3739 17.3407 24.3739 20.404C24.3739 20.8395 24.4231 21.263 24.5193 21.6693C19.861 21.4373 15.7303 19.2291 12.9659 15.8715C12.468 16.7183 12.2061 17.6808 12.2069 18.6606C12.2069 20.5859 13.1964 22.2854 14.7011 23.2798C13.8111 23.2529 12.9405 23.0148 12.1627 22.5857C12.1619 22.609 12.1619 22.6317 12.1619 22.6566C12.1619 25.344 14.0939 27.5878 16.6585 28.0963C16.1768 28.2262 15.6798 28.2918 15.1806 28.2915C14.82 28.2915 14.4687 28.2564 14.1272 28.1915C14.8407 30.3964 16.9099 32.0009 19.363 32.0457C17.4447 33.5344 15.0281 34.4211 12.4017 34.4211C11.9549 34.4214 11.5085 34.3958 11.0648 34.3442C13.5453 35.9184 16.4907 36.8369 19.6565 36.8369" fill="#1DA1F2"/>
</g>
</g>
<defs>
<clipPath id="clip0_53_4060">
<rect width="48" height="48" fill="white"/>
</clipPath>
<clipPath id="clip1_53_4060">
<rect width="36.8372" height="24.5581" fill="white" transform="translate(5.58139 12.2791)"/>
</clipPath>
</defs>
</svg>
