<svg width="58" height="58" viewBox="0 0 58 58" fill="none" xmlns="http://www.w3.org/2000/svg">
<g clip-path="url(#clip0_53_4044)">
<circle cx="29" cy="29" r="29" fill="#383838"/>
<g clip-path="url(#clip1_53_4044)">
<path d="M22.3752 39.7342L22.8429 39.9681C24.75 41.1024 26.9303 41.6953 29.1492 41.683C35.9802 41.6674 41.5928 36.0416 41.5928 29.2106C41.5928 25.9094 40.2816 22.739 37.9501 20.402C35.6216 18.0408 32.4404 16.7102 29.1251 16.7102C22.3253 16.7102 16.7307 22.3056 16.7307 29.1046C16.7307 29.1584 16.7307 29.2114 16.7314 29.2652C16.7519 31.5768 17.3985 33.8397 18.6023 35.8132L18.9141 36.2809L17.6669 40.8801L22.3752 39.7342Z" fill="#00E676"/>
<path d="M39.3377 18.9988C36.6834 16.2907 33.0422 14.7715 29.2506 14.7894H29.2264C21.418 14.7894 14.9923 21.215 14.9923 29.0235C14.9923 29.0601 14.9931 29.096 14.9931 29.1327C15.0225 31.6153 15.6652 34.0521 16.864 36.2263L14.8372 43.6318L22.3908 41.683C24.4775 42.8286 26.8234 43.4191 29.2038 43.3979C37.0412 43.3551 43.466 36.8928 43.4613 29.0547C43.48 25.2888 41.995 21.6671 39.3377 18.9988ZM29.2506 40.9814C27.1405 40.9924 25.0676 40.4263 23.2561 39.3444L22.7883 39.1105L18.2905 40.2798L19.4598 35.8366L19.148 35.3688C17.9898 33.4987 17.3761 31.3425 17.3761 29.1428C17.3761 22.6556 22.7143 17.3174 29.2015 17.3174C35.6887 17.3174 41.0269 22.6556 41.0269 29.1428C41.0269 33.2275 38.9105 37.0331 35.44 39.1885C33.6045 40.3643 31.4694 40.9867 29.2896 40.9814M36.1416 32.3287L35.2841 31.9389C35.2841 31.9389 34.0369 31.3933 33.2574 31.0035C33.1794 31.0035 33.1015 30.9256 33.0235 30.9256C32.8313 30.9303 32.6435 30.984 32.4778 31.0815C32.3118 31.1789 32.3999 31.1594 31.3085 32.4066C31.2345 32.5524 31.0825 32.6436 30.9188 32.6405H30.8408C30.7236 32.6209 30.615 32.5666 30.529 32.4846L30.1393 32.3287C29.303 31.9746 28.5372 31.4729 27.8786 30.8476C27.7227 30.6917 27.4889 30.5358 27.333 30.3799C26.7559 29.8271 26.2575 29.1976 25.8519 28.509L25.7739 28.3531C25.7062 28.2578 25.6536 28.1527 25.618 28.0413C25.5976 27.9063 25.6252 27.7684 25.696 27.6516C25.7669 27.5346 26.0078 27.2618 26.2416 27.0279C26.4755 26.7941 26.4755 26.6382 26.6314 26.4823C26.7115 26.371 26.7669 26.2438 26.7938 26.1094C26.8207 25.9749 26.8185 25.8363 26.7873 25.7027C26.424 24.6941 26.0077 23.7053 25.5401 22.7405C25.4147 22.5456 25.2194 22.4061 24.9944 22.3508H24.1369C23.981 22.3508 23.8251 22.4287 23.6692 22.4287L23.5912 22.5067C23.4354 22.5846 23.2795 22.7405 23.1235 22.8185C22.9676 22.8964 22.8897 23.1303 22.7338 23.2862C22.1888 23.9749 21.8873 24.8246 21.8763 25.7027C21.8849 26.3204 22.0175 26.9301 22.266 27.4956L22.344 27.7295C23.044 29.226 24.0229 30.5753 25.2283 31.7051L25.5401 32.0169C25.767 32.2048 25.9758 32.4136 26.1637 32.6405C27.7788 34.046 29.6973 35.0594 31.7685 35.6027C32.0023 35.6807 32.3141 35.6807 32.548 35.7586H33.3275C33.7349 35.7385 34.1335 35.6322 34.4968 35.4468C34.6878 35.3603 34.8702 35.2558 35.0425 35.135L35.1984 34.9791C35.3543 34.8232 35.5102 34.7452 35.6661 34.5893C35.8184 34.4536 35.9498 34.2959 36.0558 34.1216C36.2055 33.7724 36.3107 33.406 36.3677 33.0303V32.4846C36.2976 32.4217 36.2188 32.3691 36.1338 32.3287" fill="white"/>
</g>
</g>
<defs>
<clipPath id="clip0_53_4044">
<rect width="58" height="58" fill="white"/>
</clipPath>
<clipPath id="clip1_53_4044">
<rect width="28.7752" height="32.3721" fill="white" transform="translate(14.8372 14.8372)"/>
</clipPath>
</defs>
</svg>
