<svg width="134" height="53" viewBox="0 0 134 53" fill="none" xmlns="http://www.w3.org/2000/svg">
<rect x="0.5" y="0.5" width="133" height="51.2978" rx="25.528" stroke="#101010"/>
<path d="M33.1051 36.8933L10.0465 13.8346L13.8346 10.0465L36.8933 33.1024L36.8933 12.7818L42.2514 12.7818L42.2514 42.2514L12.7818 42.2514L12.7818 36.8933L33.1051 36.8933Z" fill="white"/>
<rect x="0.5" y="0.5" width="115.265" height="51.2978" rx="25.528" stroke="#101010"/>
<path d="M33.1051 36.8933L10.0465 13.8346L13.8346 10.0465L36.8933 33.1024L36.8933 12.7818L42.2514 12.7818L42.2514 42.2514L12.7818 42.2514L12.7818 36.8933L33.1051 36.8933Z" fill="white"/>
<rect x="0.5" y="0.5" width="99.5" height="51.2978" rx="25.528" stroke="#101010"/>
<path d="M57.2062 36.8933L34.1475 13.8346L37.9357 10.0465L60.9943 33.1024L60.9943 12.7818L66.3525 12.7818L66.3525 42.2514L36.8829 42.2514L36.8829 36.8933L57.2062 36.8933Z" fill="#101010"/>
</svg>
