<svg width="1280" height="298" viewBox="0 0 1280 298" fill="none" xmlns="http://www.w3.org/2000/svg">
<g style="mix-blend-mode:overlay" clip-path="url(#clip0_0_49)">
<path d="M237.276 270.406L149.356 143.61L249.764 1.87939H210.54L130.833 115.818L58.7533 1.87939H4.3583L104.599 153.303L21.2048 271.692C17.9361 275.944 14.4997 280.494 10.8958 285.143C7.29178 289.89 3.60398 294.143 0 298H24.4735C31.3463 298 36.7941 296.813 40.8172 294.44C44.8402 292.066 48.2766 288.802 51.1262 284.45L123.038 180.996L190.927 282.571C193.861 286.824 196.627 290.088 199.392 292.165C202.158 294.242 205.092 295.824 208.36 296.616C211.629 297.506 215.233 297.901 219.256 297.901H256.805C254.29 294.934 251.524 291.275 248.675 287.022C245.741 282.769 241.97 277.131 237.276 270.307V270.406Z" fill="white" fill-opacity="0.64"/>
<path d="M441.865 10.8795C433.903 3.56057 421.582 0 404.819 0C386.296 0 373.222 3.95619 365.594 11.8686C357.967 19.781 352.017 31.0561 347.658 45.5951L275.244 298H307.931L330.225 216.404H466.255L489.639 298H534.814L460.807 45.5951C456.113 29.7703 449.743 18.1985 441.781 10.8795H441.865ZM424.851 193.952C381.519 193.952 350.759 144.302 363.918 95.542L372.216 64.7826C373.641 58.7494 375.904 53.2108 379.005 48.0677C382.106 42.9247 388.559 40.3531 398.366 40.3531C407.082 40.3531 412.865 42.8258 415.799 47.771C418.732 52.7162 421.079 58.3538 422.839 64.7826L458.795 193.853H424.934L424.851 193.952Z" fill="white" fill-opacity="0.64"/>
<path d="M752.226 165.369L644.358 2.57156H607.9C599.937 2.57156 595.076 4.05513 593.484 7.02227C591.891 9.98942 591.053 17.3084 591.053 28.8802V298H622.064V48.7601L786.422 297.901H820.199C827.826 297.901 832.771 296.615 835.202 294.044C837.549 291.472 838.722 284.648 838.722 273.472L838.89 2.47266H808.298L807.376 143.214C807.124 177.534 770.33 192.37 752.394 165.27L752.226 165.369Z" fill="white" fill-opacity="0.64"/>
<path d="M935.191 5.1433C933.18 6.82468 931.923 9.09949 931.42 11.8688C930.917 14.6382 930.582 18.3965 930.582 23.144V298H972.488V2.57178H945.249C940.555 2.57178 937.203 3.46192 935.191 5.1433Z" fill="white" fill-opacity="0.64"/>
<path d="M1271.79 287.022C1268.85 282.769 1265.08 277.131 1260.39 270.307L1172.47 143.511L1272.88 1.87939H1233.65L1153.94 115.818L1081.86 1.87939H1027.47L1127.71 153.303L1044.32 271.692C1041.05 275.944 1037.61 280.494 1034.01 285.143C1030.4 289.89 1026.72 294.143 1023.11 298H1047.58C1054.46 298 1059.91 296.813 1063.93 294.44C1067.95 292.066 1071.39 288.802 1074.24 284.45L1146.15 180.996L1214.04 282.571C1216.97 286.824 1219.74 290.088 1222.5 292.165C1225.27 294.242 1228.2 295.824 1231.47 296.616C1234.74 297.506 1238.34 297.901 1242.37 297.901H1279.92C1277.4 294.934 1274.64 291.275 1271.79 287.022Z" fill="white" fill-opacity="0.64"/>
</g>
<defs>
<clipPath id="clip0_0_49">
<rect width="1280" height="298" fill="white"/>
</clipPath>
</defs>
</svg>
