<svg width="32" height="32" viewBox="0 0 32 32" fill="none" xmlns="http://www.w3.org/2000/svg">
<path d="M15.7121 3.98458C15.815 3.63257 15.8665 3.45656 15.9576 3.43259C15.9854 3.42528 16.0146 3.42528 16.0424 3.43259C16.1335 3.45656 16.185 3.63257 16.2879 3.98459L18.6692 12.1271C18.6892 12.1954 18.6992 12.2296 18.7206 12.2558C18.7276 12.2645 18.7355 12.2724 18.7442 12.2794C18.7704 12.3008 18.8046 12.3108 18.8729 12.3308L27.0154 14.7121C27.3674 14.815 27.5434 14.8665 27.5674 14.9576C27.5747 14.9854 27.5747 15.0146 27.5674 15.0424C27.5434 15.1335 27.3674 15.185 27.0154 15.2879L18.8729 17.6692C18.8046 17.6892 18.7704 17.6992 18.7442 17.7206C18.7355 17.7276 18.7276 17.7355 18.7206 17.7442C18.6992 17.7704 18.6892 17.8046 18.6692 17.8729L16.2879 26.0154C16.185 26.3674 16.1335 26.5434 16.0424 26.5674C16.0146 26.5747 15.9854 26.5747 15.9576 26.5674C15.8665 26.5434 15.815 26.3674 15.7121 26.0154L13.3308 17.8729C13.3108 17.8046 13.3008 17.7704 13.2794 17.7442C13.2724 17.7355 13.2645 17.7276 13.2558 17.7206C13.2296 17.6992 13.1954 17.6892 13.1271 17.6692L4.98458 15.2879C4.63257 15.185 4.45656 15.1335 4.43259 15.0424C4.42528 15.0146 4.42528 14.9854 4.43259 14.9576C4.45656 14.8665 4.63257 14.815 4.98459 14.7121L13.1271 12.3308C13.1954 12.3108 13.2296 12.3008 13.2558 12.2794C13.2645 12.2724 13.2724 12.2645 13.2794 12.2558C13.3008 12.2296 13.3108 12.1954 13.3308 12.1271L15.7121 3.98458Z" stroke="white" stroke-width="3" stroke-linejoin="round"/>
</svg>
